# 3ds Max Wavefront OBJ Exporter v0.99 - (c)2007 guruware
# File Created: 10.05.2022 12:16:20

mtllib brazo.mtl

#
# object brazo
#

v  -1.6046 0.2483 0.2000
v  -1.6046 -0.2517 -0.2000
v  -1.6046 -0.2517 0.2000
v  -1.6046 0.2483 -0.2000
v  -0.0046 -0.2517 0.2000
v  -0.0046 -0.2517 -0.2000
v  -0.0046 0.2483 0.2000
v  -0.0046 0.2483 -0.2000
v  -1.4046 -0.2517 0.2000
v  -1.4046 0.2483 0.2000
v  -1.3046 -0.2517 0.2000
v  -1.3046 0.2483 0.2000
v  -1.4046 -0.2517 -0.2000
v  -1.4046 0.2483 -0.2000
v  -1.3046 -0.2517 -0.2000
v  -1.3046 0.2483 -0.2000
v  -1.3046 0.2483 -0.0000
v  -1.0046 0.2483 -0.0000
v  -1.3046 0.2483 -0.1000
v  -1.0046 0.2483 -0.1000
# 20 vertices

vn -1.0000 0.0000 -0.0000
vn 1.0000 0.0000 -0.0000
vn 0.0000 0.0000 1.0000
vn 0.0000 0.0000 -1.0000
vn 0.0000 -1.0000 -0.0000
vn 0.0000 1.0000 -0.0000
# 6 vertex normals

vt 0.8496 0.5000 0.0000
vt 0.9785 0.5000 0.0000
vt 0.8770 0.5000 0.0000
vt 0.9395 0.5000 0.0000
# 4 texture coords

o brazo
g brazo
usemtl palette
s 1
f 1/1/1 2/1/1 3/1/1 
f 4/1/1 2/1/1 1/1/1 
f 5/2/2 6/2/2 7/2/2 
f 7/2/2 6/2/2 8/2/2 
f 9/1/3 1/1/3 3/1/3 
f 10/1/3 1/1/3 9/1/3 
f 11/3/3 10/3/3 9/3/3 
f 12/3/3 10/3/3 11/3/3 
f 5/2/3 12/2/3 11/2/3 
f 7/2/3 12/2/3 5/2/3 
f 2/1/4 4/1/4 13/1/4 
f 13/1/4 4/1/4 14/1/4 
f 13/3/4 14/3/4 15/3/4 
f 15/3/4 14/3/4 16/3/4 
f 15/2/4 16/2/4 6/2/4 
f 6/2/4 16/2/4 8/2/4 
f 2/1/5 9/1/5 3/1/5 
f 13/3/5 11/3/5 9/3/5 
f 13/1/5 9/1/5 2/1/5 
f 15/2/5 5/2/5 11/2/5 
f 15/3/5 11/3/5 13/3/5 
f 6/2/5 5/2/5 15/2/5 
f 10/3/6 12/3/6 17/3/6 
f 12/2/6 7/2/6 17/2/6 
f 17/2/6 7/2/6 18/2/6 
f 10/3/6 17/3/6 19/3/6 
f 17/4/6 18/4/6 19/4/6 
f 18/2/6 7/2/6 20/2/6 
f 19/4/6 18/4/6 20/4/6 
f 1/1/6 10/1/6 4/1/6 
f 10/3/6 19/3/6 14/3/6 
f 4/1/6 10/1/6 14/1/6 
f 19/2/6 20/2/6 16/2/6 
f 14/3/6 19/3/6 16/3/6 
f 20/2/6 7/2/6 8/2/6 
f 16/2/6 20/2/6 8/2/6 
# 36 faces

