# MagicaVoxel @ Ephtracy

# group
o 

# material
mtllib cabeza.mtl
usemtl palette

# normals
vn -1 0 0
vn 1 0 0
vn 0 0 1
vn 0 0 -1
vn 0 -1 0
vn 0 1 0

# texcoords
vt 0.876953 0.5
vt 0.904297 0.5
vt 0.958984 0.5
vt 0.982422 0.5

# verts
v -0.8 5.4 0.1
v -0.8 5.4 -0.4
v -0.8 6 0.2
v -0.8 6 0.1
v -0.8 6.2 0.3
v -0.8 6.2 0.2
v -0.8 6.3 0.5
v -0.8 6.3 0.3
v -0.8 6.8 0.5
v -0.8 6.8 -0.4
v -0.7 5.4 -0.4
v -0.7 5.4 -0.5
v -0.7 6.2 0.5
v -0.7 6.2 0.3
v -0.7 6.3 0.5
v -0.7 6.3 0.3
v -0.7 6.8 0.4
v -0.7 6.8 -0.4
v -0.7 6.8 -0.5
v -0.7 6.9 0.4
v -0.7 6.9 -0.4
v -0.6 5.4 0.4
v -0.6 5.4 0.1
v -0.6 6 0.2
v -0.6 6 0.1
v -0.6 6.2 0.4
v -0.6 6.2 0.2
v -0.3 6.4 0.5
v -0.3 6.4 0.4
v -0.3 6.5 0.5
v -0.3 6.5 0.4
v -0.2 6.3 0.5
v -0.2 6.3 0.4
v -0.2 6.4 0.5
v -0.2 6.4 0.4
v -0.1 6.1 0.5
v -0.1 6.1 0.4
v -0.1 6.3 0.5
v -0.1 6.3 0.4
v 0.6 6.2 0.5
v 0.6 6.2 0.4
v 0.6 6.5 0.5
v 0.6 6.5 0.4
v -0.6 6.2 0.5
v -0.6 6.2 0.4
v -0.6 6.5 0.5
v -0.6 6.5 0.4
v 0 6.1 0.5
v 0 6.1 0.4
v 0 6.2 0.5
v 0 6.2 0.4
v 0.1 6.2 0.5
v 0.1 6.2 0.4
v 0.1 6.5 0.5
v 0.1 6.5 0.4
v 0.6 5.4 0.4
v 0.6 5.4 0.1
v 0.6 6 0.2
v 0.6 6 0.1
v 0.6 6.2 0.4
v 0.6 6.2 0.2
v 0.7 5.4 -0.4
v 0.7 5.4 -0.5
v 0.7 6.2 0.5
v 0.7 6.2 0.3
v 0.7 6.3 0.5
v 0.7 6.3 0.3
v 0.7 6.8 0.4
v 0.7 6.8 -0.4
v 0.7 6.8 -0.5
v 0.7 6.9 0.4
v 0.7 6.9 -0.4
v 0.8 5.4 0.1
v 0.8 5.4 -0.4
v 0.8 6 0.2
v 0.8 6 0.1
v 0.8 6.2 0.3
v 0.8 6.2 0.2
v 0.8 6.3 0.5
v 0.8 6.3 0.3
v 0.8 6.8 0.5
v 0.8 6.8 -0.4
v -0.8 6.3 0.5
v -0.8 6.8 0.5
v -0.7 6.2 0.5
v -0.7 6.3 0.5
v -0.6 6.2 0.5
v -0.6 6.5 0.5
v -0.3 6.4 0.5
v -0.3 6.5 0.5
v -0.2 6.3 0.5
v -0.2 6.4 0.5
v -0.1 6.1 0.5
v -0.1 6.3 0.5
v 0 6.1 0.5
v 0 6.2 0.5
v 0.1 6.2 0.5
v 0.1 6.5 0.5
v 0.6 6.2 0.5
v 0.6 6.5 0.5
v 0.7 6.2 0.5
v 0.7 6.3 0.5
v 0.8 6.3 0.5
v 0.8 6.8 0.5
v -0.7 6.8 0.4
v -0.7 6.9 0.4
v -0.6 5.4 0.4
v -0.6 6.2 0.4
v -0.6 6.5 0.4
v -0.5 5.8 0.4
v -0.5 6.2 0.4
v -0.4 5.8 0.4
v -0.4 6 0.4
v -0.3 6.4 0.4
v -0.3 6.5 0.4
v -0.2 5.8 0.4
v -0.2 6 0.4
v -0.2 6.2 0.4
v -0.2 6.3 0.4
v -0.2 6.4 0.4
v -0.1 6.1 0.4
v -0.1 6.3 0.4
v 0 6.1 0.4
v 0 6.2 0.4
v 0.1 6.2 0.4
v 0.1 6.5 0.4
v 0.2 5.8 0.4
v 0.2 6 0.4
v 0.2 6.2 0.4
v 0.4 5.8 0.4
v 0.4 6 0.4
v 0.5 5.8 0.4
v 0.5 6.2 0.4
v 0.6 5.4 0.4
v 0.6 6.2 0.4
v 0.6 6.5 0.4
v 0.7 6.8 0.4
v 0.7 6.9 0.4
v -0.8 6.2 0.3
v -0.8 6.3 0.3
v -0.7 6.2 0.3
v -0.7 6.3 0.3
v 0.7 6.2 0.3
v 0.7 6.3 0.3
v 0.8 6.2 0.3
v 0.8 6.3 0.3
v -0.8 6 0.2
v -0.8 6.2 0.2
v -0.6 6 0.2
v -0.6 6.2 0.2
v 0.6 6 0.2
v 0.6 6.2 0.2
v 0.8 6 0.2
v 0.8 6.2 0.2
v -0.8 5.4 0.1
v -0.8 6 0.1
v -0.6 5.4 0.1
v -0.6 6 0.1
v 0.6 5.4 0.1
v 0.6 6 0.1
v 0.8 5.4 0.1
v 0.8 6 0.1
v -0.8 5.4 -0.4
v -0.8 6.8 -0.4
v -0.7 5.4 -0.4
v -0.7 6.8 -0.4
v -0.7 6.9 -0.4
v 0.7 5.4 -0.4
v 0.7 6.8 -0.4
v 0.7 6.9 -0.4
v 0.8 5.4 -0.4
v 0.8 6.8 -0.4
v -0.7 5.4 -0.5
v -0.7 6.8 -0.5
v 0.7 5.4 -0.5
v 0.7 6.8 -0.5
v -0.6 5.4 0.4
v 0.6 5.4 0.4
v -0.8 5.4 0.1
v -0.6 5.4 0.1
v 0.6 5.4 0.1
v 0.8 5.4 0.1
v -0.8 5.4 -0.4
v -0.7 5.4 -0.4
v -0.6 5.4 -0.4
v 0.6 5.4 -0.4
v 0.7 5.4 -0.4
v 0.8 5.4 -0.4
v -0.7 5.4 -0.5
v 0.7 5.4 -0.5
v -0.8 6 0.2
v -0.6 6 0.2
v 0.6 6 0.2
v 0.8 6 0.2
v -0.8 6 0.1
v -0.6 6 0.1
v 0.6 6 0.1
v 0.8 6 0.1
v -0.1 6.1 0.5
v 0 6.1 0.5
v -0.1 6.1 0.4
v 0 6.1 0.4
v -0.7 6.2 0.5
v -0.6 6.2 0.5
v 0 6.2 0.5
v 0.1 6.2 0.5
v 0.6 6.2 0.5
v 0.7 6.2 0.5
v -0.6 6.2 0.4
v 0 6.2 0.4
v 0.1 6.2 0.4
v 0.6 6.2 0.4
v -0.8 6.2 0.3
v -0.7 6.2 0.3
v 0.7 6.2 0.3
v 0.8 6.2 0.3
v -0.8 6.2 0.2
v -0.6 6.2 0.2
v 0.6 6.2 0.2
v 0.8 6.2 0.2
v -0.8 6.3 0.5
v -0.7 6.3 0.5
v -0.2 6.3 0.5
v -0.1 6.3 0.5
v 0.7 6.3 0.5
v 0.8 6.3 0.5
v -0.2 6.3 0.4
v -0.1 6.3 0.4
v -0.8 6.3 0.3
v -0.7 6.3 0.3
v 0.7 6.3 0.3
v 0.8 6.3 0.3
v -0.3 6.4 0.5
v -0.2 6.4 0.5
v -0.3 6.4 0.4
v -0.2 6.4 0.4
v -0.6 6.5 0.5
v -0.3 6.5 0.5
v 0.1 6.5 0.5
v 0.6 6.5 0.5
v -0.6 6.5 0.4
v -0.3 6.5 0.4
v 0.1 6.5 0.4
v 0.6 6.5 0.4
v -0.8 6.8 0.5
v 0.8 6.8 0.5
v -0.7 6.8 0.4
v 0.7 6.8 0.4
v -0.8 6.8 -0.4
v -0.7 6.8 -0.4
v 0.7 6.8 -0.4
v 0.8 6.8 -0.4
v -0.7 6.8 -0.5
v 0.7 6.8 -0.5
v -0.7 6.9 0.4
v 0.7 6.9 0.4
v -0.7 6.9 -0.4
v 0.7 6.9 -0.4

# faces
f 4/3/1 2/3/1 1/3/1
f 6/3/1 4/3/1 3/3/1
f 8/3/1 6/3/1 5/3/1
f 9/3/1 8/3/1 7/3/1
f 10/3/1 2/3/1 4/3/1
f 10/3/1 8/3/1 9/3/1
f 10/3/1 4/3/1 6/3/1
f 10/3/1 6/3/1 8/3/1
f 15/3/1 14/3/1 13/3/1
f 16/3/1 14/3/1 15/3/1
f 18/3/1 12/3/1 11/3/1
f 19/3/1 12/3/1 18/3/1
f 20/3/1 18/3/1 17/3/1
f 21/3/1 18/3/1 20/3/1
f 24/4/1 23/4/1 22/4/1
f 25/4/1 23/4/1 24/4/1
f 26/4/1 24/4/1 22/4/1
f 27/4/1 24/4/1 26/4/1
f 30/3/1 29/3/1 28/3/1
f 31/3/1 29/3/1 30/3/1
f 34/3/1 33/3/1 32/3/1
f 35/3/1 33/3/1 34/3/1
f 38/3/1 37/3/1 36/3/1
f 39/3/1 37/3/1 38/3/1
f 42/3/1 41/3/1 40/3/1
f 43/3/1 41/3/1 42/3/1
f 44/3/2 45/3/2 46/3/2
f 46/3/2 45/3/2 47/3/2
f 48/3/2 49/3/2 50/3/2
f 50/3/2 49/3/2 51/3/2
f 52/3/2 53/3/2 54/3/2
f 54/3/2 53/3/2 55/3/2
f 56/4/2 57/4/2 58/4/2
f 58/4/2 57/4/2 59/4/2
f 56/4/2 58/4/2 60/4/2
f 60/4/2 58/4/2 61/4/2
f 64/3/2 65/3/2 66/3/2
f 66/3/2 65/3/2 67/3/2
f 62/3/2 63/3/2 69/3/2
f 69/3/2 63/3/2 70/3/2
f 68/3/2 69/3/2 71/3/2
f 71/3/2 69/3/2 72/3/2
f 73/3/2 74/3/2 76/3/2
f 75/3/2 76/3/2 78/3/2
f 77/3/2 78/3/2 80/3/2
f 79/3/2 80/3/2 81/3/2
f 76/3/2 74/3/2 82/3/2
f 81/3/2 80/3/2 82/3/2
f 78/3/2 76/3/2 82/3/2
f 80/3/2 78/3/2 82/3/2
f 86/3/3 84/3/3 83/3/3
f 87/3/3 86/3/3 85/3/3
f 88/3/3 84/3/3 86/3/3
f 88/3/3 86/3/3 87/3/3
f 90/3/3 84/3/3 88/3/3
f 92/3/3 90/3/3 89/3/3
f 94/3/3 92/3/3 91/3/3
f 95/3/3 94/3/3 93/3/3
f 96/3/3 94/3/3 95/3/3
f 97/3/3 94/3/3 96/3/3
f 98/3/3 84/3/3 90/3/3
f 98/3/3 94/3/3 97/3/3
f 98/3/3 90/3/3 92/3/3
f 98/3/3 92/3/3 94/3/3
f 100/3/3 84/3/3 98/3/3
f 101/3/3 100/3/3 99/3/3
f 102/3/3 100/3/3 101/3/3
f 103/3/3 100/3/3 102/3/3
f 104/3/3 84/3/3 100/3/3
f 104/3/3 100/3/3 103/3/3
f 110/4/3 108/4/3 107/4/3
f 110/4/3 109/4/3 108/4/3
f 111/4/3 109/4/3 110/4/3
f 112/4/3 110/4/3 107/4/3
f 112/1/3 111/1/3 110/1/3
f 113/1/3 111/1/3 112/1/3
f 114/4/3 109/4/3 111/4/3
f 115/4/3 109/4/3 114/4/3
f 116/4/3 112/4/3 107/4/3
f 116/2/3 113/2/3 112/2/3
f 117/1/3 111/1/3 113/1/3
f 117/2/3 113/2/3 116/2/3
f 118/4/3 114/4/3 111/4/3
f 118/1/3 111/1/3 117/1/3
f 119/4/3 114/4/3 118/4/3
f 120/4/3 114/4/3 119/4/3
f 121/4/3 117/4/3 116/4/3
f 121/4/3 118/4/3 117/4/3
f 121/4/3 119/4/3 118/4/3
f 122/4/3 119/4/3 121/4/3
f 123/4/3 121/4/3 116/4/3
f 125/4/3 124/4/3 123/4/3
f 127/4/3 116/4/3 107/4/3
f 127/4/3 126/4/3 125/4/3
f 127/4/3 123/4/3 116/4/3
f 127/4/3 125/4/3 123/4/3
f 128/4/3 126/4/3 127/4/3
f 129/4/3 126/4/3 128/4/3
f 130/4/3 127/4/3 107/4/3
f 130/2/3 128/2/3 127/2/3
f 131/1/3 129/1/3 128/1/3
f 131/2/3 128/2/3 130/2/3
f 132/4/3 130/4/3 107/4/3
f 132/1/3 131/1/3 130/1/3
f 133/4/3 126/4/3 129/4/3
f 133/1/3 131/1/3 132/1/3
f 133/1/3 129/1/3 131/1/3
f 134/4/3 132/4/3 107/4/3
f 134/4/3 133/4/3 132/4/3
f 135/4/3 126/4/3 133/4/3
f 135/4/3 133/4/3 134/4/3
f 136/4/3 126/4/3 135/4/3
f 137/3/3 106/3/3 105/3/3
f 138/3/3 106/3/3 137/3/3
f 141/3/3 140/3/3 139/3/3
f 142/3/3 140/3/3 141/3/3
f 145/3/3 144/3/3 143/3/3
f 146/3/3 144/3/3 145/3/3
f 149/3/3 148/3/3 147/3/3
f 150/3/3 148/3/3 149/3/3
f 153/3/3 152/3/3 151/3/3
f 154/3/3 152/3/3 153/3/3
f 157/3/3 156/3/3 155/3/3
f 158/3/3 156/3/3 157/3/3
f 161/3/3 160/3/3 159/3/3
f 162/3/3 160/3/3 161/3/3
f 163/3/4 164/3/4 165/3/4
f 165/3/4 164/3/4 166/3/4
f 166/3/4 167/3/4 169/3/4
f 169/3/4 167/3/4 170/3/4
f 168/3/4 169/3/4 171/3/4
f 171/3/4 169/3/4 172/3/4
f 173/3/4 174/3/4 175/3/4
f 175/3/4 174/3/4 176/3/4
f 180/4/5 178/4/5 177/4/5
f 181/4/5 178/4/5 180/4/5
f 183/3/5 180/3/5 179/3/5
f 184/3/5 180/3/5 183/3/5
f 185/4/5 181/4/5 180/4/5
f 185/3/5 180/3/5 184/3/5
f 186/3/5 182/3/5 181/3/5
f 186/4/5 181/4/5 185/4/5
f 187/3/5 182/3/5 186/3/5
f 188/3/5 182/3/5 187/3/5
f 189/3/5 185/3/5 184/3/5
f 189/3/5 187/3/5 186/3/5
f 189/3/5 186/3/5 185/3/5
f 190/3/5 187/3/5 189/3/5
f 195/3/5 192/3/5 191/3/5
f 196/3/5 192/3/5 195/3/5
f 197/3/5 194/3/5 193/3/5
f 198/3/5 194/3/5 197/3/5
f 201/3/5 200/3/5 199/3/5
f 202/3/5 200/3/5 201/3/5
f 209/3/5 204/3/5 203/3/5
f 210/3/5 206/3/5 205/3/5
f 211/3/5 206/3/5 210/3/5
f 212/3/5 208/3/5 207/3/5
f 214/3/5 209/3/5 203/3/5
f 215/3/5 208/3/5 212/3/5
f 217/3/5 214/3/5 213/3/5
f 218/3/5 209/3/5 214/3/5
f 218/3/5 214/3/5 217/3/5
f 219/3/5 216/3/5 215/3/5
f 219/3/5 215/3/5 212/3/5
f 220/3/5 216/3/5 219/3/5
f 227/3/5 224/3/5 223/3/5
f 228/3/5 224/3/5 227/3/5
f 229/3/5 222/3/5 221/3/5
f 230/3/5 222/3/5 229/3/5
f 231/3/5 226/3/5 225/3/5
f 232/3/5 226/3/5 231/3/5
f 235/3/5 234/3/5 233/3/5
f 236/3/5 234/3/5 235/3/5
f 241/3/5 238/3/5 237/3/5
f 242/3/5 238/3/5 241/3/5
f 243/3/5 240/3/5 239/3/5
f 244/3/5 240/3/5 243/3/5
f 245/3/6 246/3/6 247/3/6
f 247/3/6 246/3/6 248/3/6
f 245/3/6 247/3/6 249/3/6
f 249/3/6 247/3/6 250/3/6
f 248/3/6 246/3/6 251/3/6
f 251/3/6 246/3/6 252/3/6
f 250/3/6 251/3/6 253/3/6
f 253/3/6 251/3/6 254/3/6
f 255/3/6 256/3/6 257/3/6
f 257/3/6 256/3/6 258/3/6
