# MagicaVoxel @ Ephtracy

# group
o 

# material
mtllib novio_joker.mtl
usemtl palette

# normals
vn -1 0 0
vn 1 0 0
vn 0 0 1
vn 0 0 -1
vn 0 -1 0
vn 0 1 0

# texcoords
vt 0.849609 0.5
vt 0.876953 0.5
vt 0.904297 0.5
vt 0.908203 0.5
vt 0.939453 0.5
vt 0.947266 0.5
vt 0.951172 0.5
vt 0.958984 0.5
vt 0.970703 0.5
vt 0.974609 0.5
vt 0.978516 0.5
vt 0.982422 0.5

# verts
v -2.6 4.5 0.2
v -2.6 4.5 -0.2
v -2.6 5 0.2
v -2.6 5 -0.2
v -1 0.3 0.3
v -1 0.3 -0.3
v -1 2.5 0.4
v -1 2.5 0.3
v -1 2.5 -0.3
v -1 2.5 -0.4
v -1 2.6 0.3
v -1 2.6 -0.3
v -1 4.5 0.2
v -1 4.5 -0.2
v -1 5 0.2
v -1 5 -0.2
v -1 5.3 0.4
v -1 5.3 -0.4
v -0.9 0 0.7
v -0.9 0 -0.2
v -0.9 0.2 0.7
v -0.9 0.2 0.5
v -0.9 0.3 0.5
v -0.9 0.3 0.3
v -0.9 0.3 -0.2
v -0.8 5.4 0.1
v -0.8 5.4 -0.4
v -0.8 6 0.2
v -0.8 6 0.1
v -0.8 6.2 0.3
v -0.8 6.2 0.2
v -0.8 6.3 0.5
v -0.8 6.3 0.3
v -0.8 6.8 0.5
v -0.8 6.8 -0.4
v -0.7 5.4 -0.4
v -0.7 5.4 -0.5
v -0.7 6.2 0.5
v -0.7 6.2 0.3
v -0.7 6.3 0.5
v -0.7 6.3 0.3
v -0.7 6.8 0.4
v -0.7 6.8 -0.4
v -0.7 6.8 -0.5
v -0.7 6.9 0.4
v -0.7 6.9 -0.4
v -0.6 5.4 0.4
v -0.6 5.4 0.1
v -0.6 6 0.2
v -0.6 6 0.1
v -0.6 6.2 0.4
v -0.6 6.2 0.2
v -0.4 5.3 0.3
v -0.4 5.3 -0.3
v -0.4 5.4 0.3
v -0.4 5.4 -0.3
v -0.3 6.4 0.5
v -0.3 6.4 0.4
v -0.3 6.5 0.5
v -0.3 6.5 0.4
v -0.2 6.3 0.5
v -0.2 6.3 0.4
v -0.2 6.4 0.5
v -0.2 6.4 0.4
v -0.0999999 6.1 0.5
v -0.0999999 6.1 0.4
v -0.0999999 6.3 0.5
v -0.0999999 6.3 0.4
v 0.3 0.3 0.3
v 0.3 0.3 -0.3
v 0.3 2.5 0.3
v 0.3 2.5 -0.3
v 0.4 0 0.7
v 0.4 0 -0.2
v 0.4 0.2 0.7
v 0.4 0.2 0.5
v 0.4 0.3 0.5
v 0.4 0.3 0.3
v 0.4 0.3 -0.2
v 0.6 6.2 0.5
v 0.6 6.2 0.4
v 0.6 6.5 0.5
v 0.6 6.5 0.4
v -0.6 6.2 0.5
v -0.6 6.2 0.4
v -0.6 6.5 0.5
v -0.6 6.5 0.4
v -0.4 0 0.7
v -0.4 0 -0.2
v -0.4 0.2 0.7
v -0.4 0.2 0.5
v -0.4 0.3 0.5
v -0.4 0.3 0.3
v -0.4 0.3 -0.2
v -0.3 0.3 0.3
v -0.3 0.3 -0.3
v -0.3 2.5 0.3
v -0.3 2.5 -0.3
v 0 6.1 0.5
v 0 6.1 0.4
v 0 6.2 0.5
v 0 6.2 0.4
v 0.0999999 6.2 0.5
v 0.0999999 6.2 0.4
v 0.0999999 6.5 0.5
v 0.0999999 6.5 0.4
v 0.4 5.3 0.3
v 0.4 5.3 -0.3
v 0.4 5.4 0.3
v 0.4 5.4 -0.3
v 0.6 5.4 0.4
v 0.6 5.4 0.1
v 0.6 6 0.2
v 0.6 6 0.1
v 0.6 6.2 0.4
v 0.6 6.2 0.2
v 0.7 5.4 -0.4
v 0.7 5.4 -0.5
v 0.7 6.2 0.5
v 0.7 6.2 0.3
v 0.7 6.3 0.5
v 0.7 6.3 0.3
v 0.7 6.8 0.4
v 0.7 6.8 -0.4
v 0.7 6.8 -0.5
v 0.7 6.9 0.4
v 0.7 6.9 -0.4
v 0.8 5.4 0.1
v 0.8 5.4 -0.4
v 0.8 6 0.2
v 0.8 6 0.1
v 0.8 6.2 0.3
v 0.8 6.2 0.2
v 0.8 6.3 0.5
v 0.8 6.3 0.3
v 0.8 6.8 0.5
v 0.8 6.8 -0.4
v 0.9 0 0.7
v 0.9 0 -0.2
v 0.9 0.2 0.7
v 0.9 0.2 0.5
v 0.9 0.3 0.5
v 0.9 0.3 0.3
v 0.9 0.3 -0.2
v 1 0.3 0.3
v 1 0.3 -0.3
v 1 2.5 0.4
v 1 2.5 0.3
v 1 2.5 -0.3
v 1 2.5 -0.4
v 1 2.6 0.3
v 1 2.6 -0.3
v 1 3.1 0.4
v 1 3.1 0.3
v 1 3.2 0.4
v 1 3.2 0.3
v 1 4.5 0.2
v 1 4.5 -0.2
v 1 5 0.2
v 1 5 -0.2
v 1 5.3 0.4
v 1 5.3 -0.4
v 2.6 4.5 0.2
v 2.6 4.5 -0.2
v 2.6 5 0.2
v 2.6 5 -0.2
v -0.9 0 0.7
v -0.9 0.2 0.7
v -0.4 0 0.7
v -0.4 0.2 0.7
v 0.4 0 0.7
v 0.4 0.2 0.7
v 0.9 0 0.7
v 0.9 0.2 0.7
v -0.9 0.2 0.5
v -0.9 0.3 0.5
v -0.8 6.3 0.5
v -0.8 6.8 0.5
v -0.7 6.2 0.5
v -0.7 6.3 0.5
v -0.6 6.2 0.5
v -0.6 6.5 0.5
v -0.4 0.2 0.5
v -0.4 0.3 0.5
v -0.3 6.4 0.5
v -0.3 6.5 0.5
v -0.2 6.3 0.5
v -0.2 6.4 0.5
v -0.0999999 6.1 0.5
v -0.0999999 6.3 0.5
v 0 6.1 0.5
v 0 6.2 0.5
v 0.0999999 6.2 0.5
v 0.0999999 6.5 0.5
v 0.4 0.2 0.5
v 0.4 0.3 0.5
v 0.6 6.2 0.5
v 0.6 6.5 0.5
v 0.7 6.2 0.5
v 0.7 6.3 0.5
v 0.8 6.3 0.5
v 0.8 6.8 0.5
v 0.9 0.2 0.5
v 0.9 0.3 0.5
v -1 2.5 0.4
v -1 5.3 0.4
v -0.7 6.8 0.4
v -0.7 6.9 0.4
v -0.6 5.4 0.4
v -0.6 6.2 0.4
v -0.6 6.5 0.4
v -0.5 5.8 0.4
v -0.5 6.2 0.4
v -0.4 2.5 0.4
v -0.4 2.6 0.4
v -0.4 5.8 0.4
v -0.4 6 0.4
v -0.3 2.6 0.4
v -0.3 4.9 0.4
v -0.3 5.2 0.4
v -0.3 5.3 0.4
v -0.3 6.4 0.4
v -0.3 6.5 0.4
v -0.2 2.7 0.4
v -0.2 4.9 0.4
v -0.2 5 0.4
v -0.2 5.2 0.4
v -0.2 5.8 0.4
v -0.2 6 0.4
v -0.2 6.2 0.4
v -0.2 6.3 0.4
v -0.2 6.4 0.4
v -0.0999999 3.5 0.4
v -0.0999999 3.6 0.4
v -0.0999999 4.1 0.4
v -0.0999999 4.2 0.4
v -0.0999999 4.7 0.4
v -0.0999999 4.8 0.4
v -0.0999999 4.9 0.4
v -0.0999999 5 0.4
v -0.0999999 5.2 0.4
v -0.0999999 6.1 0.4
v -0.0999999 6.3 0.4
v 0 3.5 0.4
v 0 3.6 0.4
v 0 4.1 0.4
v 0 4.2 0.4
v 0 4.7 0.4
v 0 4.8 0.4
v 0 5 0.4
v 0 5.2 0.4
v 0 5.3 0.4
v 0 6.1 0.4
v 0 6.2 0.4
v 0.0999999 5.2 0.4
v 0.0999999 5.3 0.4
v 0.0999999 6.2 0.4
v 0.0999999 6.5 0.4
v 0.2 3.5 0.4
v 0.2 3.6 0.4
v 0.2 4.1 0.4
v 0.2 4.2 0.4
v 0.2 4.7 0.4
v 0.2 4.8 0.4
v 0.2 5.8 0.4
v 0.2 6 0.4
v 0.2 6.2 0.4
v 0.3 2.6 0.4
v 0.3 2.7 0.4
v 0.3 3.5 0.4
v 0.3 3.6 0.4
v 0.3 4.1 0.4
v 0.3 4.2 0.4
v 0.3 4.3 0.4
v 0.3 4.7 0.4
v 0.3 4.8 0.4
v 0.4 2.5 0.4
v 0.4 2.6 0.4
v 0.4 4.4 0.4
v 0.4 4.6 0.4
v 0.4 5.8 0.4
v 0.4 6 0.4
v 0.5 5.8 0.4
v 0.5 6.2 0.4
v 0.6 3.1 0.4
v 0.6 3.2 0.4
v 0.6 4.4 0.4
v 0.6 4.6 0.4
v 0.6 5.4 0.4
v 0.6 6.2 0.4
v 0.6 6.5 0.4
v 0.7 4.3 0.4
v 0.7 4.7 0.4
v 0.7 6.8 0.4
v 0.7 6.9 0.4
v 1 2.5 0.4
v 1 3.1 0.4
v 1 3.2 0.4
v 1 5.3 0.4
v -1 0.3 0.3
v -1 2.5 0.3
v -0.9 0.3 0.3
v -0.8 6.2 0.3
v -0.8 6.3 0.3
v -0.7 6.2 0.3
v -0.7 6.3 0.3
v -0.4 0.3 0.3
v -0.4 2.5 0.3
v -0.4 5.3 0.3
v -0.4 5.4 0.3
v -0.3 0.3 0.3
v -0.3 2.5 0.3
v -0.3 5.3 0.3
v 0 5.3 0.3
v 0.0999999 5.3 0.3
v 0.3 0.3 0.3
v 0.3 2.5 0.3
v 0.4 0.3 0.3
v 0.4 2.5 0.3
v 0.4 5.3 0.3
v 0.4 5.4 0.3
v 0.7 6.2 0.3
v 0.7 6.3 0.3
v 0.8 6.2 0.3
v 0.8 6.3 0.3
v 0.9 0.3 0.3
v 1 0.3 0.3
v 1 2.5 0.3
v -2.6 4.5 0.2
v -2.6 5 0.2
v -2.4 4.5 0.2
v -2.4 5 0.2
v -2.3 4.5 0.2
v -2.3 5 0.2
v -1 4.5 0.2
v -1 5 0.2
v -0.8 6 0.2
v -0.8 6.2 0.2
v -0.6 6 0.2
v -0.6 6.2 0.2
v 0.6 6 0.2
v 0.6 6.2 0.2
v 0.8 6 0.2
v 0.8 6.2 0.2
v 1 4.5 0.2
v 1 5 0.2
v 2.3 4.5 0.2
v 2.3 5 0.2
v 2.4 4.5 0.2
v 2.4 5 0.2
v 2.6 4.5 0.2
v 2.6 5 0.2
v -0.8 5.4 0.1
v -0.8 6 0.1
v -0.6 5.4 0.1
v -0.6 6 0.1
v 0.6 5.4 0.1
v 0.6 6 0.1
v 0.8 5.4 0.1
v 0.8 6 0.1
v -2.6 4.5 -0.2
v -2.6 5 -0.2
v -2.4 4.5 -0.2
v -2.4 5 -0.2
v -2.3 4.5 -0.2
v -2.3 5 -0.2
v -1 4.5 -0.2
v -1 5 -0.2
v -0.9 0 -0.2
v -0.9 0.3 -0.2
v -0.4 0 -0.2
v -0.4 0.3 -0.2
v 0.4 0 -0.2
v 0.4 0.3 -0.2
v 0.9 0 -0.2
v 0.9 0.3 -0.2
v 1 4.5 -0.2
v 1 5 -0.2
v 2.3 4.5 -0.2
v 2.3 5 -0.2
v 2.4 4.5 -0.2
v 2.4 5 -0.2
v 2.6 4.5 -0.2
v 2.6 5 -0.2
v -1 0.3 -0.3
v -1 2.5 -0.3
v -0.4 5.3 -0.3
v -0.4 5.4 -0.3
v -0.3 0.3 -0.3
v -0.3 2.5 -0.3
v 0.3 0.3 -0.3
v 0.3 2.5 -0.3
v 0.4 5.3 -0.3
v 0.4 5.4 -0.3
v 1 0.3 -0.3
v 1 2.5 -0.3
v -1 2.5 -0.4
v -1 5.3 -0.4
v -0.8 5.4 -0.4
v -0.8 6.8 -0.4
v -0.7 5.4 -0.4
v -0.7 6.8 -0.4
v -0.7 6.9 -0.4
v 0.7 5.4 -0.4
v 0.7 6.8 -0.4
v 0.7 6.9 -0.4
v 0.8 5.4 -0.4
v 0.8 6.8 -0.4
v 1 2.5 -0.4
v 1 5.3 -0.4
v -0.7 5.4 -0.5
v -0.7 6.8 -0.5
v 0.7 5.4 -0.5
v 0.7 6.8 -0.5
v -0.9 0 0.7
v -0.4 0 0.7
v 0.4 0 0.7
v 0.9 0 0.7
v -0.9 0 -0.2
v -0.4 0 -0.2
v 0.4 0 -0.2
v 0.9 0 -0.2
v -1 0.3 0.3
v -0.9 0.3 0.3
v -0.4 0.3 0.3
v -0.3 0.3 0.3
v 0.3 0.3 0.3
v 0.4 0.3 0.3
v 0.9 0.3 0.3
v 1 0.3 0.3
v -0.9 0.3 -0.2
v -0.4 0.3 -0.2
v 0.4 0.3 -0.2
v 0.9 0.3 -0.2
v -1 0.3 -0.3
v -0.3 0.3 -0.3
v 0.3 0.3 -0.3
v 1 0.3 -0.3
v -1 2.5 0.4
v -0.4 2.5 0.4
v 0.4 2.5 0.4
v 1 2.5 0.4
v -1 2.5 0.3
v -0.4 2.5 0.3
v -0.3 2.5 0.3
v 0.3 2.5 0.3
v 0.4 2.5 0.3
v 1 2.5 0.3
v -1 2.5 -0.3
v -0.3 2.5 -0.3
v 0.3 2.5 -0.3
v 1 2.5 -0.3
v -1 2.5 -0.4
v 1 2.5 -0.4
v -2.6 4.5 0.2
v -2.4 4.5 0.2
v -2.3 4.5 0.2
v -1 4.5 0.2
v 1 4.5 0.2
v 2.3 4.5 0.2
v 2.4 4.5 0.2
v 2.6 4.5 0.2
v -2.6 4.5 -0.2
v -2.4 4.5 -0.2
v -2.3 4.5 -0.2
v -1 4.5 -0.2
v 1 4.5 -0.2
v 2.3 4.5 -0.2
v 2.4 4.5 -0.2
v 2.6 4.5 -0.2
v -0.6 5.4 0.4
v 0.6 5.4 0.4
v -0.4 5.4 0.3
v 0.4 5.4 0.3
v -0.8 5.4 0.1
v -0.6 5.4 0.1
v 0.6 5.4 0.1
v 0.8 5.4 0.1
v -0.4 5.4 -0.3
v 0.4 5.4 -0.3
v -0.8 5.4 -0.4
v -0.7 5.4 -0.4
v -0.6 5.4 -0.4
v 0.6 5.4 -0.4
v 0.7 5.4 -0.4
v 0.8 5.4 -0.4
v -0.7 5.4 -0.5
v 0.7 5.4 -0.5
v -0.8 6 0.2
v -0.6 6 0.2
v 0.6 6 0.2
v 0.8 6 0.2
v -0.8 6 0.1
v -0.6 6 0.1
v 0.6 6 0.1
v 0.8 6 0.1
v -0.0999999 6.1 0.5
v 0 6.1 0.5
v -0.0999999 6.1 0.4
v 0 6.1 0.4
v -0.7 6.2 0.5
v -0.6 6.2 0.5
v 0 6.2 0.5
v 0.0999999 6.2 0.5
v 0.6 6.2 0.5
v 0.7 6.2 0.5
v -0.6 6.2 0.4
v 0 6.2 0.4
v 0.0999999 6.2 0.4
v 0.6 6.2 0.4
v -0.8 6.2 0.3
v -0.7 6.2 0.3
v 0.7 6.2 0.3
v 0.8 6.2 0.3
v -0.8 6.2 0.2
v -0.6 6.2 0.2
v 0.6 6.2 0.2
v 0.8 6.2 0.2
v -0.8 6.3 0.5
v -0.7 6.3 0.5
v -0.2 6.3 0.5
v -0.0999999 6.3 0.5
v 0.7 6.3 0.5
v 0.8 6.3 0.5
v -0.2 6.3 0.4
v -0.0999999 6.3 0.4
v -0.8 6.3 0.3
v -0.7 6.3 0.3
v 0.7 6.3 0.3
v 0.8 6.3 0.3
v -0.3 6.4 0.5
v -0.2 6.4 0.5
v -0.3 6.4 0.4
v -0.2 6.4 0.4
v -0.6 6.5 0.5
v -0.3 6.5 0.5
v 0.0999999 6.5 0.5
v 0.6 6.5 0.5
v -0.6 6.5 0.4
v -0.3 6.5 0.4
v 0.0999999 6.5 0.4
v 0.6 6.5 0.4
v -0.9 0.2 0.7
v -0.4 0.2 0.7
v 0.4 0.2 0.7
v 0.9 0.2 0.7
v -0.9 0.2 0.5
v -0.4 0.2 0.5
v 0.4 0.2 0.5
v 0.9 0.2 0.5
v -0.9 0.3 0.5
v -0.4 0.3 0.5
v 0.4 0.3 0.5
v 0.9 0.3 0.5
v -0.9 0.3 0.3
v -0.4 0.3 0.3
v 0.4 0.3 0.3
v 0.9 0.3 0.3
v -2.6 5 0.2
v -2.4 5 0.2
v -2.3 5 0.2
v -1 5 0.2
v 1 5 0.2
v 2.3 5 0.2
v 2.4 5 0.2
v 2.6 5 0.2
v -2.3 5 0
v -2 5 0
v 2 5 0
v 2.3 5 0
v -2.3 5 -0.1
v -2 5 -0.1
v 2 5 -0.1
v 2.3 5 -0.1
v -2.6 5 -0.2
v -2.4 5 -0.2
v -2.3 5 -0.2
v -1 5 -0.2
v 1 5 -0.2
v 2.3 5 -0.2
v 2.4 5 -0.2
v 2.6 5 -0.2
v -1 5.3 0.4
v -0.3 5.3 0.4
v 0 5.3 0.4
v 0.0999999 5.3 0.4
v 1 5.3 0.4
v -0.4 5.3 0.3
v -0.3 5.3 0.3
v 0 5.3 0.3
v 0.0999999 5.3 0.3
v 0.4 5.3 0.3
v -0.4 5.3 -0.3
v 0.4 5.3 -0.3
v -1 5.3 -0.4
v 1 5.3 -0.4
v -0.8 6.8 0.5
v 0.8 6.8 0.5
v -0.7 6.8 0.4
v 0.7 6.8 0.4
v -0.8 6.8 -0.4
v -0.7 6.8 -0.4
v 0.7 6.8 -0.4
v 0.8 6.8 -0.4
v -0.7 6.8 -0.5
v 0.7 6.8 -0.5
v -0.7 6.9 0.4
v 0.7 6.9 0.4
v -0.7 6.9 -0.4
v 0.7 6.9 -0.4

# faces
f 3/1/1 2/1/1 1/1/1
f 4/1/1 2/1/1 3/1/1
f 8/4/1 6/4/1 5/4/1
f 9/4/1 6/4/1 8/4/1
f 11/11/1 8/11/1 7/11/1
f 11/4/1 9/4/1 8/4/1
f 12/11/1 10/11/1 9/11/1
f 12/4/1 9/4/1 11/4/1
f 13/11/1 12/11/1 11/11/1
f 14/11/1 12/11/1 13/11/1
f 15/11/1 13/11/1 11/11/1
f 16/11/1 12/11/1 14/11/1
f 17/11/1 11/11/1 7/11/1
f 17/11/1 16/11/1 15/11/1
f 17/11/1 15/11/1 11/11/1
f 18/11/1 12/11/1 16/11/1
f 18/11/1 16/11/1 17/11/1
f 18/11/1 10/11/1 12/11/1
f 21/4/1 20/4/1 19/4/1
f 22/4/1 20/4/1 21/4/1
f 23/4/1 20/4/1 22/4/1
f 24/4/1 20/4/1 23/4/1
f 25/4/1 20/4/1 24/4/1
f 29/8/1 27/8/1 26/8/1
f 31/8/1 29/8/1 28/8/1
f 33/8/1 31/8/1 30/8/1
f 34/8/1 33/8/1 32/8/1
f 35/8/1 27/8/1 29/8/1
f 35/8/1 33/8/1 34/8/1
f 35/8/1 29/8/1 31/8/1
f 35/8/1 31/8/1 33/8/1
f 40/8/1 39/8/1 38/8/1
f 41/8/1 39/8/1 40/8/1
f 43/8/1 37/8/1 36/8/1
f 44/8/1 37/8/1 43/8/1
f 45/8/1 43/8/1 42/8/1
f 46/8/1 43/8/1 45/8/1
f 49/12/1 48/12/1 47/12/1
f 50/12/1 48/12/1 49/12/1
f 51/12/1 49/12/1 47/12/1
f 52/12/1 49/12/1 51/12/1
f 55/2/1 54/2/1 53/2/1
f 56/2/1 54/2/1 55/2/1
f 59/8/1 58/8/1 57/8/1
f 60/8/1 58/8/1 59/8/1
f 63/8/1 62/8/1 61/8/1
f 64/8/1 62/8/1 63/8/1
f 67/8/1 66/8/1 65/8/1
f 68/8/1 66/8/1 67/8/1
f 71/4/1 70/4/1 69/4/1
f 72/4/1 70/4/1 71/4/1
f 75/4/1 74/4/1 73/4/1
f 76/4/1 74/4/1 75/4/1
f 77/4/1 74/4/1 76/4/1
f 78/4/1 74/4/1 77/4/1
f 79/4/1 74/4/1 78/4/1
f 82/8/1 81/8/1 80/8/1
f 83/8/1 81/8/1 82/8/1
f 84/8/2 85/8/2 86/8/2
f 86/8/2 85/8/2 87/8/2
f 88/4/2 89/4/2 90/4/2
f 90/4/2 89/4/2 91/4/2
f 91/4/2 89/4/2 92/4/2
f 92/4/2 89/4/2 93/4/2
f 93/4/2 89/4/2 94/4/2
f 95/4/2 96/4/2 97/4/2
f 97/4/2 96/4/2 98/4/2
f 99/8/2 100/8/2 101/8/2
f 101/8/2 100/8/2 102/8/2
f 103/8/2 104/8/2 105/8/2
f 105/8/2 104/8/2 106/8/2
f 107/2/2 108/2/2 109/2/2
f 109/2/2 108/2/2 110/2/2
f 111/12/2 112/12/2 113/12/2
f 113/12/2 112/12/2 114/12/2
f 111/12/2 113/12/2 115/12/2
f 115/12/2 113/12/2 116/12/2
f 119/8/2 120/8/2 121/8/2
f 121/8/2 120/8/2 122/8/2
f 117/8/2 118/8/2 124/8/2
f 124/8/2 118/8/2 125/8/2
f 123/8/2 124/8/2 126/8/2
f 126/8/2 124/8/2 127/8/2
f 128/8/2 129/8/2 131/8/2
f 130/8/2 131/8/2 133/8/2
f 132/8/2 133/8/2 135/8/2
f 134/8/2 135/8/2 136/8/2
f 131/8/2 129/8/2 137/8/2
f 136/8/2 135/8/2 137/8/2
f 133/8/2 131/8/2 137/8/2
f 135/8/2 133/8/2 137/8/2
f 138/4/2 139/4/2 140/4/2
f 140/4/2 139/4/2 141/4/2
f 141/4/2 139/4/2 142/4/2
f 142/4/2 139/4/2 143/4/2
f 143/4/2 139/4/2 144/4/2
f 145/4/2 146/4/2 148/4/2
f 148/4/2 146/4/2 149/4/2
f 147/11/2 148/11/2 151/11/2
f 148/4/2 149/4/2 151/4/2
f 149/11/2 150/11/2 152/11/2
f 151/4/2 149/4/2 152/4/2
f 147/11/2 151/11/2 153/11/2
f 151/11/2 152/11/2 153/11/2
f 153/11/2 152/11/2 154/11/2
f 153/4/2 154/4/2 155/4/2
f 154/11/2 152/11/2 156/11/2
f 155/4/2 154/4/2 156/4/2
f 155/11/2 156/11/2 157/11/2
f 156/11/2 152/11/2 157/11/2
f 157/11/2 152/11/2 158/11/2
f 155/11/2 157/11/2 159/11/2
f 158/11/2 152/11/2 160/11/2
f 155/11/2 159/11/2 161/11/2
f 159/11/2 160/11/2 161/11/2
f 152/11/2 150/11/2 162/11/2
f 161/11/2 160/11/2 162/11/2
f 160/11/2 152/11/2 162/11/2
f 163/1/2 164/1/2 165/1/2
f 165/1/2 164/1/2 166/1/2
f 169/4/3 168/4/3 167/4/3
f 170/4/3 168/4/3 169/4/3
f 173/4/3 172/4/3 171/4/3
f 174/4/3 172/4/3 173/4/3
f 180/8/3 178/8/3 177/8/3
f 181/8/3 180/8/3 179/8/3
f 182/8/3 178/8/3 180/8/3
f 182/8/3 180/8/3 181/8/3
f 183/4/3 176/4/3 175/4/3
f 184/4/3 176/4/3 183/4/3
f 186/8/3 178/8/3 182/8/3
f 188/8/3 186/8/3 185/8/3
f 190/8/3 188/8/3 187/8/3
f 191/8/3 190/8/3 189/8/3
f 192/8/3 190/8/3 191/8/3
f 193/8/3 190/8/3 192/8/3
f 194/8/3 178/8/3 186/8/3
f 194/8/3 190/8/3 193/8/3
f 194/8/3 186/8/3 188/8/3
f 194/8/3 188/8/3 190/8/3
f 198/8/3 178/8/3 194/8/3
f 199/8/3 198/8/3 197/8/3
f 200/8/3 198/8/3 199/8/3
f 201/8/3 198/8/3 200/8/3
f 202/8/3 178/8/3 198/8/3
f 202/8/3 198/8/3 201/8/3
f 203/4/3 196/4/3 195/4/3
f 204/4/3 196/4/3 203/4/3
f 212/12/3 210/12/3 209/12/3
f 212/12/3 211/12/3 210/12/3
f 213/12/3 211/12/3 212/12/3
f 214/11/3 206/11/3 205/11/3
f 215/11/3 206/11/3 214/11/3
f 216/12/3 212/12/3 209/12/3
f 216/2/3 213/2/3 212/2/3
f 217/2/3 213/2/3 216/2/3
f 218/11/3 206/11/3 215/11/3
f 218/4/3 215/4/3 214/4/3
f 219/11/3 206/11/3 218/11/3
f 220/11/3 206/11/3 219/11/3
f 221/11/3 206/11/3 220/11/3
f 222/12/3 211/12/3 213/12/3
f 223/12/3 211/12/3 222/12/3
f 224/4/3 219/4/3 218/4/3
f 225/11/3 220/11/3 219/11/3
f 225/4/3 219/4/3 224/4/3
f 226/11/3 220/11/3 225/11/3
f 227/2/3 221/2/3 220/2/3
f 227/11/3 220/11/3 226/11/3
f 228/3/3 217/3/3 216/3/3
f 228/12/3 216/12/3 209/12/3
f 229/2/3 213/2/3 217/2/3
f 229/3/3 217/3/3 228/3/3
f 230/12/3 222/12/3 213/12/3
f 230/2/3 213/2/3 229/2/3
f 231/12/3 222/12/3 230/12/3
f 232/12/3 222/12/3 231/12/3
f 233/11/3 225/11/3 224/11/3
f 234/11/3 225/11/3 233/11/3
f 235/11/3 225/11/3 234/11/3
f 236/11/3 225/11/3 235/11/3
f 237/11/3 225/11/3 236/11/3
f 238/11/3 225/11/3 237/11/3
f 239/4/3 226/4/3 225/4/3
f 239/11/3 225/11/3 238/11/3
f 240/2/3 227/2/3 226/2/3
f 240/4/3 226/4/3 239/4/3
f 241/2/3 221/2/3 227/2/3
f 241/2/3 227/2/3 240/2/3
f 242/12/3 229/12/3 228/12/3
f 242/12/3 230/12/3 229/12/3
f 242/12/3 231/12/3 230/12/3
f 243/12/3 231/12/3 242/12/3
f 244/11/3 233/11/3 224/11/3
f 244/4/3 234/4/3 233/4/3
f 245/11/3 235/11/3 234/11/3
f 245/4/3 234/4/3 244/4/3
f 246/4/3 236/4/3 235/4/3
f 246/11/3 235/11/3 245/11/3
f 247/11/3 237/11/3 236/11/3
f 247/4/3 236/4/3 246/4/3
f 248/4/3 238/4/3 237/4/3
f 248/11/3 237/11/3 247/11/3
f 249/11/3 240/11/3 239/11/3
f 249/4/3 238/4/3 248/4/3
f 249/11/3 239/11/3 238/11/3
f 250/10/3 241/10/3 240/10/3
f 250/11/3 240/11/3 249/11/3
f 251/2/3 221/2/3 241/2/3
f 251/10/3 241/10/3 250/10/3
f 252/2/3 221/2/3 251/2/3
f 253/12/3 242/12/3 228/12/3
f 255/11/3 247/11/3 246/11/3
f 255/11/3 248/11/3 247/11/3
f 255/11/3 245/11/3 244/11/3
f 255/11/3 251/11/3 250/11/3
f 255/11/3 250/11/3 249/11/3
f 255/10/3 252/10/3 251/10/3
f 255/11/3 249/11/3 248/11/3
f 255/11/3 246/11/3 245/11/3
f 256/10/3 252/10/3 255/10/3
f 257/12/3 254/12/3 253/12/3
f 259/11/3 256/11/3 255/11/3
f 259/11/3 244/11/3 224/11/3
f 259/11/3 255/11/3 244/11/3
f 260/11/3 256/11/3 259/11/3
f 261/11/3 256/11/3 260/11/3
f 262/11/3 256/11/3 261/11/3
f 263/11/3 256/11/3 262/11/3
f 264/11/3 256/11/3 263/11/3
f 265/12/3 258/12/3 257/12/3
f 265/12/3 228/12/3 209/12/3
f 265/12/3 253/12/3 228/12/3
f 265/12/3 257/12/3 253/12/3
f 266/12/3 258/12/3 265/12/3
f 267/12/3 258/12/3 266/12/3
f 268/4/3 218/4/3 214/4/3
f 268/4/3 224/4/3 218/4/3
f 269/11/3 259/11/3 224/11/3
f 269/4/3 224/4/3 268/4/3
f 270/4/3 260/4/3 259/4/3
f 270/11/3 259/11/3 269/11/3
f 271/11/3 261/11/3 260/11/3
f 271/4/3 260/4/3 270/4/3
f 272/4/3 262/4/3 261/4/3
f 272/11/3 261/11/3 271/11/3
f 273/11/3 263/11/3 262/11/3
f 273/4/3 262/4/3 272/4/3
f 274/11/3 263/11/3 273/11/3
f 275/4/3 264/4/3 263/4/3
f 275/11/3 263/11/3 274/11/3
f 276/11/3 256/11/3 264/11/3
f 276/4/3 264/4/3 275/4/3
f 277/4/3 268/4/3 214/4/3
f 278/11/3 274/11/3 273/11/3
f 278/4/3 268/4/3 277/4/3
f 278/11/3 272/11/3 271/11/3
f 278/11/3 271/11/3 270/11/3
f 278/11/3 273/11/3 272/11/3
f 278/11/3 269/11/3 268/11/3
f 278/11/3 270/11/3 269/11/3
f 279/7/3 275/7/3 274/7/3
f 280/7/3 275/7/3 279/7/3
f 281/3/3 266/3/3 265/3/3
f 281/12/3 265/12/3 209/12/3
f 282/2/3 267/2/3 266/2/3
f 282/3/3 266/3/3 281/3/3
f 283/12/3 281/12/3 209/12/3
f 283/2/3 282/2/3 281/2/3
f 284/12/3 258/12/3 267/12/3
f 284/2/3 282/2/3 283/2/3
f 284/2/3 267/2/3 282/2/3
f 285/11/3 274/11/3 278/11/3
f 285/11/3 278/11/3 277/11/3
f 286/11/3 274/11/3 285/11/3
f 287/7/3 279/7/3 274/7/3
f 287/6/3 280/6/3 279/6/3
f 288/7/3 275/7/3 280/7/3
f 288/6/3 280/6/3 287/6/3
f 289/12/3 283/12/3 209/12/3
f 289/12/3 284/12/3 283/12/3
f 290/12/3 258/12/3 284/12/3
f 290/12/3 284/12/3 289/12/3
f 291/12/3 258/12/3 290/12/3
f 292/7/3 287/7/3 274/7/3
f 292/11/3 274/11/3 286/11/3
f 292/7/3 288/7/3 287/7/3
f 293/11/3 276/11/3 275/11/3
f 293/7/3 288/7/3 292/7/3
f 293/7/3 275/7/3 288/7/3
f 294/8/3 208/8/3 207/8/3
f 295/8/3 208/8/3 294/8/3
f 296/11/3 285/11/3 277/11/3
f 297/4/3 286/4/3 285/4/3
f 297/11/3 285/11/3 296/11/3
f 298/11/3 292/11/3 286/11/3
f 298/4/3 286/4/3 297/4/3
f 298/11/3 293/11/3 292/11/3
f 299/11/3 276/11/3 293/11/3
f 299/11/3 293/11/3 298/11/3
f 299/11/3 256/11/3 276/11/3
f 302/4/3 301/4/3 300/4/3
f 305/8/3 304/8/3 303/8/3
f 306/8/3 304/8/3 305/8/3
f 307/4/3 301/4/3 302/4/3
f 308/4/3 301/4/3 307/4/3
f 311/4/3 308/4/3 307/4/3
f 312/4/3 308/4/3 311/4/3
f 313/2/3 310/2/3 309/2/3
f 314/2/3 310/2/3 313/2/3
f 315/2/3 310/2/3 314/2/3
f 318/4/3 317/4/3 316/4/3
f 319/4/3 317/4/3 318/4/3
f 320/2/3 310/2/3 315/2/3
f 321/2/3 310/2/3 320/2/3
f 324/8/3 323/8/3 322/8/3
f 325/8/3 323/8/3 324/8/3
f 326/4/3 319/4/3 318/4/3
f 327/4/3 319/4/3 326/4/3
f 328/4/3 319/4/3 327/4/3
f 331/1/3 330/1/3 329/1/3
f 332/1/3 330/1/3 331/1/3
f 333/2/3 332/2/3 331/2/3
f 334/2/3 332/2/3 333/2/3
f 335/11/3 334/11/3 333/11/3
f 336/11/3 334/11/3 335/11/3
f 339/8/3 338/8/3 337/8/3
f 340/8/3 338/8/3 339/8/3
f 343/8/3 342/8/3 341/8/3
f 344/8/3 342/8/3 343/8/3
f 347/11/3 346/11/3 345/11/3
f 348/11/3 346/11/3 347/11/3
f 349/2/3 348/2/3 347/2/3
f 350/2/3 348/2/3 349/2/3
f 351/1/3 350/1/3 349/1/3
f 352/1/3 350/1/3 351/1/3
f 355/8/3 354/8/3 353/8/3
f 356/8/3 354/8/3 355/8/3
f 359/8/3 358/8/3 357/8/3
f 360/8/3 358/8/3 359/8/3
f 361/1/4 362/1/4 363/1/4
f 363/1/4 362/1/4 364/1/4
f 363/2/4 364/2/4 365/2/4
f 365/2/4 364/2/4 366/2/4
f 365/11/4 366/11/4 367/11/4
f 367/11/4 366/11/4 368/11/4
f 369/4/4 370/4/4 371/4/4
f 371/4/4 370/4/4 372/4/4
f 373/4/4 374/4/4 375/4/4
f 375/4/4 374/4/4 376/4/4
f 377/11/4 378/11/4 379/11/4
f 379/11/4 378/11/4 380/11/4
f 379/2/4 380/2/4 381/2/4
f 381/2/4 380/2/4 382/2/4
f 381/1/4 382/1/4 383/1/4
f 383/1/4 382/1/4 384/1/4
f 385/4/4 386/4/4 389/4/4
f 389/4/4 386/4/4 390/4/4
f 387/2/4 388/2/4 393/2/4
f 393/2/4 388/2/4 394/2/4
f 391/4/4 392/4/4 395/4/4
f 395/4/4 392/4/4 396/4/4
f 399/8/4 400/8/4 401/8/4
f 401/8/4 400/8/4 402/8/4
f 402/8/4 403/8/4 405/8/4
f 405/8/4 403/8/4 406/8/4
f 404/8/4 405/8/4 407/8/4
f 407/8/4 405/8/4 408/8/4
f 397/11/4 398/11/4 409/11/4
f 409/11/4 398/11/4 410/11/4
f 411/8/4 412/8/4 413/8/4
f 413/8/4 412/8/4 414/8/4
f 419/4/5 416/4/5 415/4/5
f 420/4/5 416/4/5 419/4/5
f 421/4/5 418/4/5 417/4/5
f 422/4/5 418/4/5 421/4/5
f 431/4/5 424/4/5 423/4/5
f 432/4/5 426/4/5 425/4/5
f 433/4/5 428/4/5 427/4/5
f 434/4/5 430/4/5 429/4/5
f 435/4/5 431/4/5 423/4/5
f 435/4/5 432/4/5 431/4/5
f 436/4/5 426/4/5 432/4/5
f 436/4/5 432/4/5 435/4/5
f 437/4/5 433/4/5 427/4/5
f 437/4/5 434/4/5 433/4/5
f 438/4/5 430/4/5 434/4/5
f 438/4/5 434/4/5 437/4/5
f 443/11/5 440/11/5 439/11/5
f 444/4/5 441/4/5 440/4/5
f 444/11/5 440/11/5 443/11/5
f 445/4/5 441/4/5 444/4/5
f 446/4/5 441/4/5 445/4/5
f 447/11/5 442/11/5 441/11/5
f 447/4/5 441/4/5 446/4/5
f 448/11/5 442/11/5 447/11/5
f 450/11/5 446/11/5 445/11/5
f 451/11/5 446/11/5 450/11/5
f 453/11/5 450/11/5 449/11/5
f 453/11/5 452/11/5 451/11/5
f 453/11/5 451/11/5 450/11/5
f 454/11/5 452/11/5 453/11/5
f 463/1/5 456/1/5 455/1/5
f 464/2/5 457/2/5 456/2/5
f 464/1/5 456/1/5 463/1/5
f 465/11/5 458/11/5 457/11/5
f 465/2/5 457/2/5 464/2/5
f 466/11/5 458/11/5 465/11/5
f 467/11/5 460/11/5 459/11/5
f 468/2/5 461/2/5 460/2/5
f 468/11/5 460/11/5 467/11/5
f 469/1/5 462/1/5 461/1/5
f 469/2/5 461/2/5 468/2/5
f 470/1/5 462/1/5 469/1/5
f 473/12/5 472/12/5 471/12/5
f 474/12/5 472/12/5 473/12/5
f 476/12/5 473/12/5 471/12/5
f 477/12/5 472/12/5 474/12/5
f 479/12/5 473/12/5 476/12/5
f 480/12/5 477/12/5 474/12/5
f 481/8/5 476/8/5 475/8/5
f 482/8/5 476/8/5 481/8/5
f 483/12/5 480/12/5 479/12/5
f 483/8/5 476/8/5 482/8/5
f 483/12/5 479/12/5 476/12/5
f 484/8/5 478/8/5 477/8/5
f 484/12/5 480/12/5 483/12/5
f 484/12/5 477/12/5 480/12/5
f 485/8/5 478/8/5 484/8/5
f 486/8/5 478/8/5 485/8/5
f 487/8/5 483/8/5 482/8/5
f 487/8/5 485/8/5 484/8/5
f 487/8/5 484/8/5 483/8/5
f 488/8/5 485/8/5 487/8/5
f 493/8/5 490/8/5 489/8/5
f 494/8/5 490/8/5 493/8/5
f 495/8/5 492/8/5 491/8/5
f 496/8/5 492/8/5 495/8/5
f 499/8/5 498/8/5 497/8/5
f 500/8/5 498/8/5 499/8/5
f 507/8/5 502/8/5 501/8/5
f 508/8/5 504/8/5 503/8/5
f 509/8/5 504/8/5 508/8/5
f 510/8/5 506/8/5 505/8/5
f 512/8/5 507/8/5 501/8/5
f 513/8/5 506/8/5 510/8/5
f 515/8/5 512/8/5 511/8/5
f 516/8/5 507/8/5 512/8/5
f 516/8/5 512/8/5 515/8/5
f 517/8/5 514/8/5 513/8/5
f 517/8/5 513/8/5 510/8/5
f 518/8/5 514/8/5 517/8/5
f 525/8/5 522/8/5 521/8/5
f 526/8/5 522/8/5 525/8/5
f 527/8/5 520/8/5 519/8/5
f 528/8/5 520/8/5 527/8/5
f 529/8/5 524/8/5 523/8/5
f 530/8/5 524/8/5 529/8/5
f 533/8/5 532/8/5 531/8/5
f 534/8/5 532/8/5 533/8/5
f 539/8/5 536/8/5 535/8/5
f 540/8/5 536/8/5 539/8/5
f 541/8/5 538/8/5 537/8/5
f 542/8/5 538/8/5 541/8/5
f 543/4/6 544/4/6 547/4/6
f 547/4/6 544/4/6 548/4/6
f 545/4/6 546/4/6 549/4/6
f 549/4/6 546/4/6 550/4/6
f 551/4/6 552/4/6 555/4/6
f 555/4/6 552/4/6 556/4/6
f 553/4/6 554/4/6 557/4/6
f 557/4/6 554/4/6 558/4/6
f 560/2/6 561/2/6 567/2/6
f 561/11/6 562/11/6 567/11/6
f 567/11/6 562/11/6 568/11/6
f 563/11/6 564/11/6 569/11/6
f 564/2/6 565/2/6 570/2/6
f 569/11/6 564/11/6 570/11/6
f 560/2/6 567/2/6 571/2/6
f 567/5/6 568/5/6 571/5/6
f 568/11/6 562/11/6 572/11/6
f 571/5/6 568/5/6 572/5/6
f 563/11/6 569/11/6 573/11/6
f 569/5/6 570/5/6 573/5/6
f 570/2/6 565/2/6 574/2/6
f 573/5/6 570/5/6 574/5/6
f 559/1/6 560/1/6 575/1/6
f 560/2/6 571/2/6 576/2/6
f 575/1/6 560/1/6 576/1/6
f 571/11/6 572/11/6 577/11/6
f 576/2/6 571/2/6 577/2/6
f 572/11/6 562/11/6 578/11/6
f 577/11/6 572/11/6 578/11/6
f 563/11/6 573/11/6 579/11/6
f 573/11/6 574/11/6 579/11/6
f 574/2/6 565/2/6 580/2/6
f 579/11/6 574/11/6 580/11/6
f 565/1/6 566/1/6 581/1/6
f 580/2/6 565/2/6 581/2/6
f 581/1/6 566/1/6 582/1/6
f 583/11/6 584/11/6 588/11/6
f 584/2/6 585/2/6 589/2/6
f 588/11/6 584/11/6 589/11/6
f 585/10/6 586/10/6 590/10/6
f 589/2/6 585/2/6 590/2/6
f 586/11/6 587/11/6 591/11/6
f 590/10/6 586/10/6 591/10/6
f 591/11/6 587/11/6 592/11/6
f 583/11/6 588/11/6 593/11/6
f 592/11/6 587/11/6 594/11/6
f 583/11/6 593/11/6 595/11/6
f 593/11/6 594/11/6 595/11/6
f 594/11/6 587/11/6 596/11/6
f 595/11/6 594/11/6 596/11/6
f 597/8/6 598/8/6 599/8/6
f 599/8/6 598/8/6 600/8/6
f 597/8/6 599/8/6 601/8/6
f 601/8/6 599/8/6 602/8/6
f 600/8/6 598/8/6 603/8/6
f 603/8/6 598/8/6 604/8/6
f 602/8/6 603/8/6 605/8/6
f 605/8/6 603/8/6 606/8/6
f 607/8/6 608/8/6 609/8/6
f 609/8/6 608/8/6 610/8/6
