# 3ds Max Wavefront OBJ Exporter v0.99 - (c)2007 guruware
# File Created: 10.05.2022 12:19:31

mtllib pierna.mtl

#
# object pierna
#

v  -0.3410 -0.0087 0.3000
v  -0.3410 -2.2087 -0.3000
v  -0.3410 -2.2087 0.3000
v  -0.3410 -0.0087 -0.3000
v  -0.2410 -2.3087 0.7000
v  -0.2410 -2.5087 -0.2000
v  -0.2410 -2.5087 0.7000
v  -0.2410 -2.3087 0.5000
v  -0.2410 -2.2087 0.5000
v  -0.2410 -2.2087 0.3000
v  -0.2410 -2.2087 -0.2000
v  0.2590 -2.5087 0.7000
v  0.2590 -2.5087 -0.2000
v  0.2590 -2.3087 0.7000
v  0.2590 -2.3087 0.5000
v  0.2590 -2.2087 0.5000
v  0.2590 -2.2087 0.3000
v  0.2590 -2.2087 -0.2000
v  0.3590 -2.2087 0.3000
v  0.3590 -2.2087 -0.3000
v  0.3590 -0.0087 0.3000
v  0.3590 -0.0087 -0.3000
# 22 vertices

vn -1.0000 0.0000 -0.0000
vn 1.0000 0.0000 -0.0000
vn 0.0000 0.0000 1.0000
vn 0.0000 0.0000 -1.0000
vn 0.0000 -1.0000 -0.0000
vn 0.0000 1.0000 -0.0000
# 6 vertex normals

vt 0.9082 0.5000 0.0000
# 1 texture coords

o pierna
g pierna
usemtl palette
s 1
f 1/1/1 2/1/1 3/1/1 
f 4/1/1 2/1/1 1/1/1 
f 5/1/1 6/1/1 7/1/1 
f 8/1/1 6/1/1 5/1/1 
f 9/1/1 6/1/1 8/1/1 
f 10/1/1 6/1/1 9/1/1 
f 11/1/1 6/1/1 10/1/1 
f 12/1/2 13/1/2 14/1/2 
f 14/1/2 13/1/2 15/1/2 
f 15/1/2 13/1/2 16/1/2 
f 16/1/2 13/1/2 17/1/2 
f 17/1/2 13/1/2 18/1/2 
f 19/1/2 20/1/2 21/1/2 
f 21/1/2 20/1/2 22/1/2 
f 12/1/3 5/1/3 7/1/3 
f 14/1/3 5/1/3 12/1/3 
f 15/1/3 9/1/3 8/1/3 
f 16/1/3 9/1/3 15/1/3 
f 10/1/3 1/1/3 3/1/3 
f 17/1/3 1/1/3 10/1/3 
f 19/1/3 1/1/3 17/1/3 
f 21/1/3 1/1/3 19/1/3 
f 6/1/4 11/1/4 13/1/4 
f 13/1/4 11/1/4 18/1/4 
f 2/1/4 4/1/4 20/1/4 
f 20/1/4 4/1/4 22/1/4 
f 6/1/5 12/1/5 7/1/5 
f 13/1/5 12/1/5 6/1/5 
f 11/1/5 10/1/5 3/1/5 
f 18/1/5 19/1/5 17/1/5 
f 2/1/5 11/1/5 3/1/5 
f 2/1/5 18/1/5 11/1/5 
f 20/1/5 19/1/5 18/1/5 
f 20/1/5 18/1/5 2/1/5 
f 5/1/6 14/1/6 8/1/6 
f 8/1/6 14/1/6 15/1/6 
f 9/1/6 16/1/6 10/1/6 
f 10/1/6 16/1/6 17/1/6 
f 1/1/6 21/1/6 4/1/6 
f 4/1/6 21/1/6 22/1/6 
# 40 faces

