# MagicaVoxel @ Ephtracy

# group
o 

# material
mtllib brazo_completo.mtl
usemtl palette

# normals
vn -1 0 0
vn 1 0 0
vn 0 0 1
vn 0 0 -1
vn 0 -1 0
vn 0 1 0

# texcoords
vt 0.939453 0.5
vt 0.970703 0.5
vt 0.978516 0.5

# verts
v -2.5 2.4 0.3
v -2.5 2.4 0.2
v -2.5 2.4 0
v -2.5 2.4 -0.1
v -2.5 2.6 0.3
v -2.5 2.6 0.2
v -2.5 2.6 0
v -2.5 2.6 -0.1
v -2.5 2.7 0.3
v -2.5 2.7 0.2
v -2.5 2.7 0
v -2.5 2.7 -0.1
v -2.5 2.8 0.3
v -2.5 2.8 0.2
v -2.5 2.8 0
v -2.5 2.8 -0.1
v -0.8 2.4 0.3
v -0.8 2.4 -0.1
v -0.8 2.8 0.3
v -0.8 2.8 -0.1
v -2.5 2.4 0.3
v -2.5 2.6 0.3
v -2.5 2.7 0.3
v -2.5 2.8 0.3
v -2.4 2.6 0.3
v -2.4 2.7 0.3
v -2.2 2.4 0.3
v -2.2 2.8 0.3
v -0.8 2.4 0.3
v -0.8 2.8 0.3
v -2.5 2.4 -0.1
v -2.5 2.6 -0.1
v -2.5 2.7 -0.1
v -2.5 2.8 -0.1
v -2.4 2.6 -0.1
v -2.4 2.7 -0.1
v -2.2 2.4 -0.1
v -2.2 2.8 -0.1
v -0.8 2.4 -0.1
v -0.8 2.8 -0.1
v -2.5 2.4 0.3
v -2.2 2.4 0.3
v -0.8 2.4 0.3
v -2.5 2.4 0.2
v -2.4 2.4 0.2
v -2.5 2.4 0
v -2.4 2.4 0
v -2.5 2.4 -0.1
v -2.2 2.4 -0.1
v -0.8 2.4 -0.1
v -2.5 2.8 0.3
v -2.2 2.8 0.3
v -0.8 2.8 0.3
v -2.5 2.8 0.2
v -2.4 2.8 0.2
v -2.5 2.8 0
v -2.4 2.8 0
v -2.5 2.8 -0.1
v -2.2 2.8 -0.1
v -0.8 2.8 -0.1

# faces
f 5/3/1 2/3/1 1/3/1
f 6/1/1 3/1/1 2/1/1
f 6/3/1 2/3/1 5/3/1
f 7/3/1 4/3/1 3/3/1
f 7/1/1 3/1/1 6/1/1
f 8/3/1 4/3/1 7/3/1
f 9/1/1 6/1/1 5/1/1
f 10/3/1 7/3/1 6/3/1
f 10/1/1 6/1/1 9/1/1
f 11/1/1 8/1/1 7/1/1
f 11/3/1 7/3/1 10/3/1
f 12/1/1 8/1/1 11/1/1
f 13/3/1 10/3/1 9/3/1
f 14/1/1 11/1/1 10/1/1
f 14/3/1 10/3/1 13/3/1
f 15/3/1 12/3/1 11/3/1
f 15/1/1 11/1/1 14/1/1
f 16/3/1 12/3/1 15/3/1
f 17/2/2 18/2/2 19/2/2
f 19/2/2 18/2/2 20/2/2
f 25/3/3 22/3/3 21/3/3
f 25/1/3 23/1/3 22/1/3
f 26/3/3 24/3/3 23/3/3
f 26/1/3 23/1/3 25/1/3
f 27/3/3 25/3/3 21/3/3
f 27/3/3 26/3/3 25/3/3
f 28/3/3 24/3/3 26/3/3
f 28/3/3 26/3/3 27/3/3
f 29/2/3 28/2/3 27/2/3
f 30/2/3 28/2/3 29/2/3
f 31/3/4 32/3/4 35/3/4
f 32/1/4 33/1/4 35/1/4
f 33/3/4 34/3/4 36/3/4
f 35/1/4 33/1/4 36/1/4
f 31/3/4 35/3/4 37/3/4
f 35/3/4 36/3/4 37/3/4
f 36/3/4 34/3/4 38/3/4
f 37/3/4 36/3/4 38/3/4
f 37/2/4 38/2/4 39/2/4
f 39/2/4 38/2/4 40/2/4
f 44/3/5 42/3/5 41/3/5
f 45/3/5 42/3/5 44/3/5
f 46/1/5 45/1/5 44/1/5
f 47/3/5 42/3/5 45/3/5
f 47/1/5 45/1/5 46/1/5
f 48/3/5 47/3/5 46/3/5
f 49/2/5 43/2/5 42/2/5
f 49/3/5 47/3/5 48/3/5
f 49/3/5 42/3/5 47/3/5
f 50/2/5 43/2/5 49/2/5
f 51/3/6 52/3/6 54/3/6
f 54/3/6 52/3/6 55/3/6
f 54/1/6 55/1/6 56/1/6
f 55/3/6 52/3/6 57/3/6
f 56/1/6 55/1/6 57/1/6
f 56/3/6 57/3/6 58/3/6
f 52/2/6 53/2/6 59/2/6
f 58/3/6 57/3/6 59/3/6
f 57/3/6 52/3/6 59/3/6
f 59/2/6 53/2/6 60/2/6
