# MagicaVoxel @ Ephtracy

# group
o 

# material
mtllib pierna.mtl
usemtl palette

# normals
vn -1 0 0
vn 1 0 0
vn 0 0 1
vn 0 0 -1
vn 0 -1 0
vn 0 1 0

# texcoords
vt 0.958984 0.5
vt 0.970703 0.5
vt 0.978516 0.5

# verts
v -0.7 0.5 0.3
v -0.7 0.5 -0.1
v -0.7 0.6 0.4
v -0.7 0.6 0.3
v -0.7 0.6 -0.1
v -0.7 0.6 -0.2
v -0.7 0.7 0.4
v -0.7 0.7 -0.2
v -0.6 0.3 0.2
v -0.6 0.3 0
v -0.6 0.4 0.2
v -0.6 0.4 0
v -0.6 0.5 0.4
v -0.6 0.5 0.3
v -0.6 0.5 0.2
v -0.6 0.5 0
v -0.6 0.5 -0.1
v -0.6 0.5 -0.2
v -0.6 0.6 0.4
v -0.6 0.6 0.3
v -0.6 0.6 -0.1
v -0.6 0.6 -0.2
v -0.5 0 0.3
v -0.5 0 0
v -0.5 0.1 0.3
v -0.5 0.1 0.2
v -0.5 0.3 0.3
v -0.5 0.3 0.2
v -0.5 0.3 0
v -0.5 0.3 -0.1
v -0.5 0.4 0.3
v -0.5 0.4 0.2
v -0.5 0.4 0
v -0.5 0.4 -0.1
v -0.5 0.5 0.3
v -0.5 0.5 0.2
v -0.5 0.5 0
v -0.5 0.5 -0.1
v -0.3 0 0.3
v -0.3 0 0
v -0.3 0.1 0.3
v -0.3 0.1 0.2
v -0.3 0.3 0.3
v -0.3 0.3 0.2
v -0.3 0.3 0
v -0.3 0.3 -0.1
v -0.3 0.4 0.3
v -0.3 0.4 0.2
v -0.3 0.4 0
v -0.3 0.4 -0.1
v -0.3 0.5 0.3
v -0.3 0.5 0.2
v -0.3 0.5 0
v -0.3 0.5 -0.1
v -0.2 0.3 0.2
v -0.2 0.3 0
v -0.2 0.4 0.2
v -0.2 0.4 0
v -0.2 0.5 0.4
v -0.2 0.5 0.3
v -0.2 0.5 0.2
v -0.2 0.5 0
v -0.2 0.5 -0.1
v -0.2 0.5 -0.2
v -0.2 0.6 0.4
v -0.2 0.6 0.3
v -0.2 0.6 -0.1
v -0.2 0.6 -0.2
v -0.1 0.5 0.3
v -0.1 0.5 -0.1
v -0.1 0.6 0.4
v -0.1 0.6 0.3
v -0.1 0.6 -0.1
v -0.1 0.6 -0.2
v -0.1 0.7 0.4
v -0.1 0.7 -0.2
v -0.7 0.6 0.4
v -0.7 0.7 0.4
v -0.6 0.5 0.4
v -0.6 0.6 0.4
v -0.2 0.5 0.4
v -0.2 0.6 0.4
v -0.1 0.6 0.4
v -0.1 0.7 0.4
v -0.7 0.5 0.3
v -0.7 0.6 0.3
v -0.6 0.5 0.3
v -0.6 0.6 0.3
v -0.5 0 0.3
v -0.5 0.1 0.3
v -0.5 0.3 0.3
v -0.5 0.4 0.3
v -0.5 0.5 0.3
v -0.3 0 0.3
v -0.3 0.1 0.3
v -0.3 0.3 0.3
v -0.3 0.4 0.3
v -0.3 0.5 0.3
v -0.2 0.5 0.3
v -0.2 0.6 0.3
v -0.1 0.5 0.3
v -0.1 0.6 0.3
v -0.6 0.3 0.2
v -0.6 0.4 0.2
v -0.6 0.5 0.2
v -0.5 0.1 0.2
v -0.5 0.3 0.2
v -0.5 0.4 0.2
v -0.5 0.5 0.2
v -0.3 0.1 0.2
v -0.3 0.3 0.2
v -0.3 0.4 0.2
v -0.3 0.5 0.2
v -0.2 0.3 0.2
v -0.2 0.4 0.2
v -0.2 0.5 0.2
v -0.6 0.3 0
v -0.6 0.4 0
v -0.6 0.5 0
v -0.5 0 0
v -0.5 0.3 0
v -0.5 0.4 0
v -0.5 0.5 0
v -0.3 0 0
v -0.3 0.3 0
v -0.3 0.4 0
v -0.3 0.5 0
v -0.2 0.3 0
v -0.2 0.4 0
v -0.2 0.5 0
v -0.7 0.5 -0.1
v -0.7 0.6 -0.1
v -0.6 0.5 -0.1
v -0.6 0.6 -0.1
v -0.5 0.3 -0.1
v -0.5 0.4 -0.1
v -0.5 0.5 -0.1
v -0.3 0.3 -0.1
v -0.3 0.4 -0.1
v -0.3 0.5 -0.1
v -0.2 0.5 -0.1
v -0.2 0.6 -0.1
v -0.1 0.5 -0.1
v -0.1 0.6 -0.1
v -0.7 0.6 -0.2
v -0.7 0.7 -0.2
v -0.6 0.5 -0.2
v -0.6 0.6 -0.2
v -0.2 0.5 -0.2
v -0.2 0.6 -0.2
v -0.1 0.6 -0.2
v -0.1 0.7 -0.2
v -0.5 0 0.3
v -0.3 0 0.3
v -0.5 0 0
v -0.3 0 0
v -0.5 0.3 0.3
v -0.3 0.3 0.3
v -0.6 0.3 0.2
v -0.5 0.3 0.2
v -0.3 0.3 0.2
v -0.2 0.3 0.2
v -0.6 0.3 0
v -0.5 0.3 0
v -0.3 0.3 0
v -0.2 0.3 0
v -0.5 0.3 -0.1
v -0.3 0.3 -0.1
v -0.6 0.5 0.4
v -0.2 0.5 0.4
v -0.7 0.5 0.3
v -0.6 0.5 0.3
v -0.5 0.5 0.3
v -0.3 0.5 0.3
v -0.2 0.5 0.3
v -0.1 0.5 0.3
v -0.6 0.5 0.2
v -0.5 0.5 0.2
v -0.3 0.5 0.2
v -0.2 0.5 0.2
v -0.6 0.5 0
v -0.5 0.5 0
v -0.3 0.5 0
v -0.2 0.5 0
v -0.7 0.5 -0.1
v -0.6 0.5 -0.1
v -0.5 0.5 -0.1
v -0.3 0.5 -0.1
v -0.2 0.5 -0.1
v -0.1 0.5 -0.1
v -0.6 0.5 -0.2
v -0.2 0.5 -0.2
v -0.7 0.6 0.4
v -0.6 0.6 0.4
v -0.2 0.6 0.4
v -0.1 0.6 0.4
v -0.7 0.6 0.3
v -0.6 0.6 0.3
v -0.2 0.6 0.3
v -0.1 0.6 0.3
v -0.7 0.6 -0.1
v -0.6 0.6 -0.1
v -0.2 0.6 -0.1
v -0.1 0.6 -0.1
v -0.7 0.6 -0.2
v -0.6 0.6 -0.2
v -0.2 0.6 -0.2
v -0.1 0.6 -0.2
v -0.5 0.1 0.3
v -0.3 0.1 0.3
v -0.5 0.1 0.2
v -0.3 0.1 0.2
v -0.7 0.7 0.4
v -0.1 0.7 0.4
v -0.7 0.7 -0.2
v -0.1 0.7 -0.2

# faces
f 4/2/1 2/2/1 1/2/1
f 5/2/1 2/2/1 4/2/1
f 7/2/1 4/2/1 3/2/1
f 7/2/1 6/2/1 5/2/1
f 7/2/1 5/2/1 4/2/1
f 8/2/1 6/2/1 7/2/1
f 11/3/1 10/3/1 9/3/1
f 12/3/1 10/3/1 11/3/1
f 15/2/1 12/2/1 11/2/1
f 16/2/1 12/2/1 15/2/1
f 19/2/1 14/2/1 13/2/1
f 20/2/1 14/2/1 19/2/1
f 21/2/1 18/2/1 17/2/1
f 22/2/1 18/2/1 21/2/1
f 25/3/1 24/3/1 23/3/1
f 26/3/1 24/3/1 25/3/1
f 28/3/1 24/3/1 26/3/1
f 29/3/1 24/3/1 28/3/1
f 31/3/1 28/3/1 27/3/1
f 32/3/1 28/3/1 31/3/1
f 33/3/1 30/3/1 29/3/1
f 34/3/1 30/3/1 33/3/1
f 35/2/1 32/2/1 31/2/1
f 36/2/1 32/2/1 35/2/1
f 37/2/1 34/2/1 33/2/1
f 38/2/1 34/2/1 37/2/1
f 39/3/2 40/3/2 41/3/2
f 41/3/2 40/3/2 42/3/2
f 42/3/2 40/3/2 44/3/2
f 44/3/2 40/3/2 45/3/2
f 43/3/2 44/3/2 47/3/2
f 47/3/2 44/3/2 48/3/2
f 45/3/2 46/3/2 49/3/2
f 49/3/2 46/3/2 50/3/2
f 47/2/2 48/2/2 51/2/2
f 51/2/2 48/2/2 52/2/2
f 49/2/2 50/2/2 53/2/2
f 53/2/2 50/2/2 54/2/2
f 55/3/2 56/3/2 57/3/2
f 57/3/2 56/3/2 58/3/2
f 57/2/2 58/2/2 61/2/2
f 61/2/2 58/2/2 62/2/2
f 59/2/2 60/2/2 65/2/2
f 65/2/2 60/2/2 66/2/2
f 63/2/2 64/2/2 67/2/2
f 67/2/2 64/2/2 68/2/2
f 69/2/2 70/2/2 72/2/2
f 72/2/2 70/2/2 73/2/2
f 71/2/2 72/2/2 75/2/2
f 73/2/2 74/2/2 75/2/2
f 72/2/2 73/2/2 75/2/2
f 75/2/2 74/2/2 76/2/2
f 80/2/3 78/2/3 77/2/3
f 81/2/3 80/2/3 79/2/3
f 82/2/3 78/2/3 80/2/3
f 82/2/3 80/2/3 81/2/3
f 83/2/3 78/2/3 82/2/3
f 84/2/3 78/2/3 83/2/3
f 87/2/3 86/2/3 85/2/3
f 88/2/3 86/2/3 87/2/3
f 94/3/3 90/3/3 89/3/3
f 95/3/3 90/3/3 94/3/3
f 96/3/3 92/3/3 91/3/3
f 97/2/3 93/2/3 92/2/3
f 97/3/3 92/3/3 96/3/3
f 98/2/3 93/2/3 97/2/3
f 101/2/3 100/2/3 99/2/3
f 102/2/3 100/2/3 101/2/3
f 107/3/3 104/3/3 103/3/3
f 108/2/3 105/2/3 104/2/3
f 108/3/3 104/3/3 107/3/3
f 109/2/3 105/2/3 108/2/3
f 110/3/3 107/3/3 106/3/3
f 111/3/3 107/3/3 110/3/3
f 114/3/3 112/3/3 111/3/3
f 115/2/3 113/2/3 112/2/3
f 115/3/3 112/3/3 114/3/3
f 116/2/3 113/2/3 115/2/3
f 117/3/4 118/3/4 121/3/4
f 118/2/4 119/2/4 122/2/4
f 121/3/4 118/3/4 122/3/4
f 122/2/4 119/2/4 123/2/4
f 120/3/4 121/3/4 124/3/4
f 124/3/4 121/3/4 125/3/4
f 125/3/4 126/3/4 128/3/4
f 126/2/4 127/2/4 129/2/4
f 128/3/4 126/3/4 129/3/4
f 129/2/4 127/2/4 130/2/4
f 131/2/4 132/2/4 133/2/4
f 133/2/4 132/2/4 134/2/4
f 135/3/4 136/3/4 138/3/4
f 136/2/4 137/2/4 139/2/4
f 138/3/4 136/3/4 139/3/4
f 139/2/4 137/2/4 140/2/4
f 141/2/4 142/2/4 143/2/4
f 143/2/4 142/2/4 144/2/4
f 145/2/4 146/2/4 148/2/4
f 147/2/4 148/2/4 149/2/4
f 148/2/4 146/2/4 150/2/4
f 149/2/4 148/2/4 150/2/4
f 150/2/4 146/2/4 151/2/4
f 151/2/4 146/2/4 152/2/4
f 155/3/5 154/3/5 153/3/5
f 156/3/5 154/3/5 155/3/5
f 160/3/5 158/3/5 157/3/5
f 161/3/5 158/3/5 160/3/5
f 163/3/5 160/3/5 159/3/5
f 164/3/5 160/3/5 163/3/5
f 165/3/5 162/3/5 161/3/5
f 166/3/5 162/3/5 165/3/5
f 167/3/5 165/3/5 164/3/5
f 168/3/5 165/3/5 167/3/5
f 172/2/5 170/2/5 169/2/5
f 173/2/5 170/2/5 172/2/5
f 174/2/5 170/2/5 173/2/5
f 175/2/5 170/2/5 174/2/5
f 177/2/5 172/2/5 171/2/5
f 177/2/5 173/2/5 172/2/5
f 178/2/5 173/2/5 177/2/5
f 179/2/5 176/2/5 175/2/5
f 179/2/5 175/2/5 174/2/5
f 180/2/5 176/2/5 179/2/5
f 181/2/5 177/2/5 171/2/5
f 184/2/5 176/2/5 180/2/5
f 185/2/5 182/2/5 181/2/5
f 185/2/5 181/2/5 171/2/5
f 186/2/5 182/2/5 185/2/5
f 187/2/5 182/2/5 186/2/5
f 188/2/5 184/2/5 183/2/5
f 189/2/5 176/2/5 184/2/5
f 189/2/5 184/2/5 188/2/5
f 190/2/5 176/2/5 189/2/5
f 191/2/5 187/2/5 186/2/5
f 191/2/5 188/2/5 187/2/5
f 191/2/5 189/2/5 188/2/5
f 192/2/5 189/2/5 191/2/5
f 197/2/5 194/2/5 193/2/5
f 198/2/5 194/2/5 197/2/5
f 199/2/5 196/2/5 195/2/5
f 200/2/5 196/2/5 199/2/5
f 205/2/5 202/2/5 201/2/5
f 206/2/5 202/2/5 205/2/5
f 207/2/5 204/2/5 203/2/5
f 208/2/5 204/2/5 207/2/5
f 209/3/6 210/3/6 211/3/6
f 211/3/6 210/3/6 212/3/6
f 213/2/6 214/2/6 215/2/6
f 215/2/6 214/2/6 216/2/6
