# 3ds Max Wavefront OBJ Exporter v0.99 - (c)2007 guruware
# File Created: 10.05.2022 12:36:44

mtllib Torso.mtl

#
# object Torso
#

v  -1.2000 -0.3780 0.2952
v  -1.2000 -1.0780 -0.3048
v  -1.2000 -1.0780 0.2952
v  -1.2000 -0.3780 -0.3048
v  -1.0000 -0.7780 0.4952
v  -1.0000 -0.8780 0.2952
v  -1.0000 -0.8780 0.4952
v  -1.0000 -0.7780 -0.5048
v  -1.0000 -0.8780 -0.5048
v  -1.0000 -0.8780 -0.3048
v  -1.0000 -0.5780 0.5952
v  -1.0000 -0.7780 0.5952
v  -1.0000 -0.5780 0.4952
v  -1.0000 -0.5780 -0.5048
v  -1.0000 -0.7780 -0.6048
v  -1.0000 -0.5780 -0.6048
v  -1.0000 -0.4780 0.4952
v  -1.0000 -0.4780 0.2952
v  -1.0000 -0.4780 -0.3048
v  -1.0000 -0.4780 -0.5048
v  -0.9000 -0.8780 0.3952
v  -0.9000 -0.9780 -0.4048
v  -0.9000 -0.9780 0.3952
v  -0.9000 -0.8780 -0.4048
v  -0.9000 -0.7780 0.5952
v  -0.9000 -0.8780 0.4952
v  -0.9000 -0.8780 0.5952
v  -0.9000 -0.7780 0.4952
v  -0.9000 -0.7780 -0.5048
v  -0.9000 -0.8780 -0.6048
v  -0.9000 -0.8780 -0.5048
v  -0.9000 -0.7780 -0.6048
v  -0.9000 -0.4780 0.5952
v  -0.9000 -0.5780 0.4952
v  -0.9000 -0.5780 0.5952
v  -0.9000 -0.4780 0.4952
v  -0.9000 -0.4780 -0.5048
v  -0.9000 -0.5780 -0.6048
v  -0.9000 -0.5780 -0.5048
v  -0.9000 -0.4780 -0.6048
v  -0.9000 0.0220 0.3952
v  -0.9000 -0.4780 -0.4048
v  -0.9000 -0.4780 0.3952
v  -0.9000 0.0220 -0.4048
v  -0.8000 -1.0780 0.2952
v  -0.8000 -1.1780 -0.3048
v  -0.8000 -1.1780 0.2952
v  -0.8000 -1.0780 -0.3048
v  -0.8000 -0.9780 0.3952
v  -0.8000 -1.0780 0.3952
v  -0.8000 -1.0780 -0.4048
v  -0.8000 -0.9780 -0.4048
v  -0.8000 -0.8780 0.4952
v  -0.8000 -0.9780 0.4952
v  -0.8000 -0.8780 0.3952
v  -0.8000 -0.8780 -0.4048
v  -0.8000 -0.9780 -0.5048
v  -0.8000 -0.8780 -0.5048
v  -0.8000 0.0220 0.4952
v  -0.8000 -0.4780 0.3952
v  -0.8000 -0.4780 0.4952
v  -0.8000 0.0220 0.3952
v  -0.8000 0.0220 -0.4048
v  -0.8000 -0.4780 -0.5048
v  -0.8000 -0.4780 -0.4048
v  -0.8000 0.0220 -0.5048
v  -0.8000 1.0220 0.3952
v  -0.8000 1.0220 -0.0048
v  -0.8000 1.0220 -0.3048
v  -0.8000 1.0220 -0.4048
v  -0.8000 1.1220 -0.0048
v  -0.8000 1.1220 -0.3048
v  -0.7000 -1.0780 0.3952
v  -0.7000 -1.1780 0.2952
v  -0.7000 -1.1780 0.3952
v  -0.7000 -1.0780 0.2952
v  -0.7000 -1.0780 -0.3048
v  -0.7000 -1.1780 -0.4048
v  -0.7000 -1.1780 -0.3048
v  -0.7000 -1.0780 -0.4048
v  -0.7000 1.1220 0.2952
v  -0.7000 1.0220 -0.0048
v  -0.7000 1.0220 0.2952
v  -0.7000 1.1220 0.1952
v  -0.7000 1.1220 -0.0048
v  -0.7000 1.1220 -0.3048
v  -0.7000 1.0220 -0.4048
v  -0.7000 1.0220 -0.3048
v  -0.7000 1.1220 -0.4048
v  -0.7000 1.2220 0.1952
v  -0.7000 1.1220 -0.2048
v  -0.7000 1.2220 -0.2048
v  -0.6000 1.1220 0.3952
v  -0.6000 1.0220 0.2952
v  -0.6000 1.0220 0.3952
v  -0.6000 1.1220 0.2952
v  -0.6000 1.2220 0.2952
v  -0.6000 1.1220 0.1952
v  -0.6000 1.2220 0.1952
v  -0.6000 1.2220 -0.2048
v  -0.6000 1.1220 -0.3048
v  -0.6000 1.1220 -0.2048
v  -0.6000 1.2220 -0.3048
v  -0.5000 1.1220 0.3952
v  -0.5000 1.0220 0.3952
v  -0.5000 1.0220 0.4952
v  -0.5000 1.2220 0.4952
v  -0.5000 1.1220 0.2952
v  -0.5000 1.2220 0.2952
v  -0.4000 1.0220 0.4952
v  -0.4000 0.9220 0.3952
v  -0.4000 0.9220 0.4952
v  -0.4000 1.0220 0.3952
v  -0.3000 0.9220 0.4952
v  -0.3000 0.8220 0.3952
v  -0.3000 0.8220 0.4952
v  -0.3000 0.9220 0.3952
v  -0.2000 0.8220 0.4952
v  -0.2000 0.7220 0.3952
v  -0.2000 0.7220 0.4952
v  -0.2000 0.8220 0.3952
v  -0.1000 0.7220 0.4952
v  -0.1000 0.6220 0.3952
v  -0.1000 0.6220 0.4952
v  -0.1000 0.7220 0.3952
v  1.0000 -0.8780 0.2952
v  1.0000 -1.0780 -0.3048
v  1.0000 -1.0780 0.2952
v  1.0000 -0.8780 -0.3048
v  1.0000 -0.3780 0.2952
v  1.0000 -0.4780 -0.3048
v  1.0000 -0.4780 0.2952
v  1.0000 -0.3780 -0.3048
v  -1.0000 -1.0780 0.2952
v  -1.0000 -1.0780 -0.3048
v  -1.0000 -0.3780 0.2952
v  -1.0000 -0.3780 -0.3048
v  0.1000 0.6220 0.4952
v  0.1000 0.6220 0.3952
v  0.1000 0.7220 0.4952
v  0.1000 0.7220 0.3952
v  0.2000 0.7220 0.4952
v  0.2000 0.7220 0.3952
v  0.2000 0.8220 0.4952
v  0.2000 0.8220 0.3952
v  0.3000 0.8220 0.4952
v  0.3000 0.8220 0.3952
v  0.3000 0.9220 0.4952
v  0.3000 0.9220 0.3952
v  0.4000 0.9220 0.4952
v  0.4000 0.9220 0.3952
v  0.4000 1.0220 0.4952
v  0.4000 1.0220 0.3952
v  0.5000 1.0220 0.4952
v  0.5000 1.0220 0.3952
v  0.5000 1.1220 0.4952
v  0.5000 1.1220 0.3952
v  0.6000 1.0220 0.3952
v  0.6000 1.0220 0.2952
v  0.6000 1.1220 0.3952
v  0.6000 1.1220 0.2952
v  0.6000 1.1220 0.4952
v  0.6000 1.2220 0.4952
v  0.6000 1.1220 0.1952
v  0.6000 1.2220 0.2952
v  0.6000 1.2220 0.1952
v  0.6000 1.1220 -0.2048
v  0.6000 1.1220 -0.3048
v  0.6000 1.2220 -0.2048
v  0.6000 1.2220 -0.3048
v  0.7000 -1.1780 0.3952
v  0.7000 -1.1780 0.2952
v  0.7000 -1.0780 0.3952
v  0.7000 -1.0780 0.2952
v  0.7000 -1.1780 -0.3048
v  0.7000 -1.1780 -0.4048
v  0.7000 -1.0780 -0.3048
v  0.7000 -1.0780 -0.4048
v  0.7000 1.0220 0.2952
v  0.7000 1.0220 -0.0048
v  0.7000 1.1220 0.2952
v  0.7000 1.1220 0.1952
v  0.7000 1.1220 -0.0048
v  0.7000 1.0220 -0.3048
v  0.7000 1.0220 -0.4048
v  0.7000 1.1220 -0.3048
v  0.7000 1.1220 -0.4048
v  0.7000 1.1220 -0.2048
v  0.7000 1.2220 0.1952
v  0.7000 1.2220 -0.2048
v  0.8000 -1.1780 0.2952
v  0.8000 -1.1780 -0.3048
v  0.8000 -1.0780 0.2952
v  0.8000 -1.0780 -0.3048
v  0.8000 -1.0780 0.3952
v  0.8000 -0.9780 0.3952
v  0.8000 -1.0780 -0.4048
v  0.8000 -0.9780 -0.4048
v  0.8000 -0.9780 0.4952
v  0.8000 -0.8780 0.4952
v  0.8000 -0.8780 0.3952
v  0.8000 -0.9780 -0.5048
v  0.8000 -0.8780 -0.4048
v  0.8000 -0.8780 -0.5048
v  0.8000 -0.4780 0.4952
v  0.8000 -0.4780 0.3952
v  0.8000 0.0220 0.4952
v  0.8000 0.0220 0.3952
v  0.8000 -0.4780 -0.4048
v  0.8000 -0.4780 -0.5048
v  0.8000 0.0220 -0.4048
v  0.8000 0.0220 -0.5048
v  0.8000 1.0220 0.3952
v  0.8000 1.0220 -0.0048
v  0.8000 1.0220 -0.3048
v  0.8000 1.0220 -0.4048
v  0.8000 1.1220 -0.0048
v  0.8000 1.1220 -0.3048
v  0.9000 -0.9780 0.3952
v  0.9000 -0.9780 -0.4048
v  0.9000 -0.8780 0.3952
v  0.9000 -0.8780 -0.4048
v  0.9000 -0.8780 0.5952
v  0.9000 -0.8780 0.4952
v  0.9000 -0.7780 0.5952
v  0.9000 -0.7780 0.4952
v  0.9000 -0.8780 -0.5048
v  0.9000 -0.8780 -0.6048
v  0.9000 -0.7780 -0.5048
v  0.9000 -0.7780 -0.6048
v  0.9000 -0.5780 0.5952
v  0.9000 -0.5780 0.4952
v  0.9000 -0.4780 0.5952
v  0.9000 -0.4780 0.4952
v  0.9000 -0.5780 -0.5048
v  0.9000 -0.5780 -0.6048
v  0.9000 -0.4780 -0.5048
v  0.9000 -0.4780 -0.6048
v  0.9000 -0.4780 0.3952
v  0.9000 -0.4780 -0.4048
v  0.9000 0.0220 0.3952
v  0.9000 0.0220 -0.4048
v  1.0000 -0.8780 0.4952
v  1.0000 -0.7780 0.4952
v  1.0000 -0.8780 -0.5048
v  1.0000 -0.7780 -0.5048
v  1.0000 -0.7780 0.5952
v  1.0000 -0.5780 0.5952
v  1.0000 -0.5780 0.4952
v  1.0000 -0.7780 -0.6048
v  1.0000 -0.5780 -0.5048
v  1.0000 -0.5780 -0.6048
v  1.0000 -0.4780 0.4952
v  1.0000 -0.4780 -0.5048
v  1.2000 -1.0780 0.2952
v  1.2000 -1.0780 -0.3048
v  1.2000 -0.3780 0.2952
v  1.2000 -0.3780 -0.3048
v  -0.7000 -0.7780 0.5952
v  -0.7000 -0.5780 0.5952
v  -0.5000 -0.7780 0.5952
v  -0.5000 -0.5780 0.5952
v  0.5000 -0.7780 0.5952
v  0.5000 -0.5780 0.5952
v  0.7000 -0.7780 0.5952
v  0.7000 -0.5780 0.5952
# 266 vertices

vn -1.0000 0.0000 -0.0000
vn 1.0000 0.0000 -0.0000
vn 0.0000 0.0000 1.0000
vn 0.0000 0.0000 -1.0000
vn 0.0000 -1.0000 -0.0000
vn 0.0000 1.0000 -0.0000
# 6 vertex normals

vt 0.9707 0.5000 0.0000
vt 0.9941 0.5000 0.0000
vt 0.9746 0.5000 0.0000
vt 0.9863 0.5000 0.0000
# 4 texture coords

o Torso
g Torso
usemtl palette
s 1
f 1/1/1 2/1/1 3/1/1 
f 4/1/1 2/1/1 1/1/1 
f 5/2/1 6/2/1 7/2/1 
f 8/2/1 9/2/1 10/2/1 
f 11/2/1 5/2/1 12/2/1 
f 13/2/1 6/2/1 5/2/1 
f 13/2/1 5/2/1 11/2/1 
f 14/2/1 15/2/1 8/2/1 
f 14/2/1 8/2/1 10/2/1 
f 16/2/1 15/2/1 14/2/1 
f 17/2/1 6/2/1 13/2/1 
f 18/2/1 6/2/1 17/2/1 
f 19/2/1 14/2/1 10/2/1 
f 20/2/1 14/2/1 19/2/1 
f 21/1/1 22/1/1 23/1/1 
f 24/1/1 22/1/1 21/1/1 
f 25/2/1 26/2/1 27/2/1 
f 28/2/1 26/2/1 25/2/1 
f 29/2/1 30/2/1 31/2/1 
f 32/2/1 30/2/1 29/2/1 
f 33/2/1 34/2/1 35/2/1 
f 36/2/1 34/2/1 33/2/1 
f 37/2/1 38/2/1 39/2/1 
f 40/2/1 38/2/1 37/2/1 
f 41/1/1 42/1/1 43/1/1 
f 44/1/1 42/1/1 41/1/1 
f 45/1/1 46/1/1 47/1/1 
f 48/1/1 46/1/1 45/1/1 
f 49/1/1 45/1/1 50/1/1 
f 49/1/1 51/1/1 48/1/1 
f 49/1/1 48/1/1 45/1/1 
f 52/1/1 51/1/1 49/1/1 
f 53/1/1 49/1/1 54/1/1 
f 55/1/1 49/1/1 53/1/1 
f 56/2/1 57/2/1 52/2/1 
f 58/2/1 57/2/1 56/2/1 
f 59/1/1 60/1/1 61/1/1 
f 62/1/1 60/1/1 59/1/1 
f 63/1/1 64/1/1 65/1/1 
f 66/1/1 64/1/1 63/1/1 
f 67/1/1 63/1/1 62/1/1 
f 68/1/1 63/1/1 67/1/1 
f 69/1/1 63/1/1 68/1/1 
f 70/1/1 63/1/1 69/1/1 
f 71/1/1 69/1/1 68/1/1 
f 72/1/1 69/1/1 71/1/1 
f 73/1/1 74/1/1 75/1/1 
f 76/1/1 74/1/1 73/1/1 
f 77/1/1 78/1/1 79/1/1 
f 80/1/1 78/1/1 77/1/1 
f 81/1/1 82/1/1 83/1/1 
f 84/1/1 82/1/1 81/1/1 
f 85/1/1 82/1/1 84/1/1 
f 86/1/1 87/1/1 88/1/1 
f 89/1/1 87/1/1 86/1/1 
f 90/1/1 91/1/1 85/1/1 
f 90/1/1 85/1/1 84/1/1 
f 92/1/1 91/1/1 90/1/1 
f 93/1/1 94/1/1 95/1/1 
f 96/1/1 94/1/1 93/1/1 
f 97/1/1 98/1/1 96/1/1 
f 99/1/1 98/1/1 97/1/1 
f 100/1/1 101/1/1 102/1/1 
f 103/1/1 101/1/1 100/1/1 
f 104/3/1 105/3/1 106/3/1 
f 107/3/1 104/3/1 106/3/1 
f 107/3/1 108/3/1 104/3/1 
f 109/3/1 108/3/1 107/3/1 
f 110/3/1 111/3/1 112/3/1 
f 113/3/1 111/3/1 110/3/1 
f 114/3/1 115/3/1 116/3/1 
f 117/3/1 115/3/1 114/3/1 
f 118/3/1 119/3/1 120/3/1 
f 121/3/1 119/3/1 118/3/1 
f 122/3/1 123/3/1 124/3/1 
f 125/3/1 123/3/1 122/3/1 
f 126/1/1 127/1/1 128/1/1 
f 129/1/1 127/1/1 126/1/1 
f 130/1/1 131/1/1 132/1/1 
f 133/1/1 131/1/1 130/1/1 
f 134/1/2 135/1/2 6/1/2 
f 6/1/2 135/1/2 10/1/2 
f 18/1/2 19/1/2 136/1/2 
f 136/1/2 19/1/2 137/1/2 
f 138/3/2 139/3/2 140/3/2 
f 140/3/2 139/3/2 141/3/2 
f 142/3/2 143/3/2 144/3/2 
f 144/3/2 143/3/2 145/3/2 
f 146/3/2 147/3/2 148/3/2 
f 148/3/2 147/3/2 149/3/2 
f 150/3/2 151/3/2 152/3/2 
f 152/3/2 151/3/2 153/3/2 
f 154/3/2 155/3/2 156/3/2 
f 156/3/2 155/3/2 157/3/2 
f 158/1/2 159/1/2 160/1/2 
f 160/1/2 159/1/2 161/1/2 
f 162/3/2 160/3/2 163/3/2 
f 160/3/2 161/3/2 163/3/2 
f 161/1/2 164/1/2 165/1/2 
f 163/3/2 161/3/2 165/3/2 
f 165/1/2 164/1/2 166/1/2 
f 167/1/2 168/1/2 169/1/2 
f 169/1/2 168/1/2 170/1/2 
f 171/1/2 172/1/2 173/1/2 
f 173/1/2 172/1/2 174/1/2 
f 175/1/2 176/1/2 177/1/2 
f 177/1/2 176/1/2 178/1/2 
f 179/1/2 180/1/2 181/1/2 
f 181/1/2 180/1/2 182/1/2 
f 182/1/2 180/1/2 183/1/2 
f 184/1/2 185/1/2 186/1/2 
f 186/1/2 185/1/2 187/1/2 
f 183/1/2 188/1/2 189/1/2 
f 182/1/2 183/1/2 189/1/2 
f 189/1/2 188/1/2 190/1/2 
f 191/1/2 192/1/2 193/1/2 
f 193/1/2 192/1/2 194/1/2 
f 195/1/2 193/1/2 196/1/2 
f 194/1/2 197/1/2 196/1/2 
f 193/1/2 194/1/2 196/1/2 
f 196/1/2 197/1/2 198/1/2 
f 199/1/2 196/1/2 200/1/2 
f 200/1/2 196/1/2 201/1/2 
f 198/2/2 202/2/2 203/2/2 
f 203/2/2 202/2/2 204/2/2 
f 205/1/2 206/1/2 207/1/2 
f 207/1/2 206/1/2 208/1/2 
f 209/1/2 210/1/2 211/1/2 
f 211/1/2 210/1/2 212/1/2 
f 208/1/2 211/1/2 213/1/2 
f 213/1/2 211/1/2 214/1/2 
f 214/1/2 211/1/2 215/1/2 
f 215/1/2 211/1/2 216/1/2 
f 214/1/2 215/1/2 217/1/2 
f 217/1/2 215/1/2 218/1/2 
f 219/1/2 220/1/2 221/1/2 
f 221/1/2 220/1/2 222/1/2 
f 223/2/2 224/2/2 225/2/2 
f 225/2/2 224/2/2 226/2/2 
f 227/2/2 228/2/2 229/2/2 
f 229/2/2 228/2/2 230/2/2 
f 231/2/2 232/2/2 233/2/2 
f 233/2/2 232/2/2 234/2/2 
f 235/2/2 236/2/2 237/2/2 
f 237/2/2 236/2/2 238/2/2 
f 239/1/2 240/1/2 241/1/2 
f 241/1/2 240/1/2 242/1/2 
f 243/2/2 126/2/2 244/2/2 
f 129/2/2 245/2/2 246/2/2 
f 247/2/2 244/2/2 248/2/2 
f 244/2/2 126/2/2 249/2/2 
f 248/2/2 244/2/2 249/2/2 
f 246/2/2 250/2/2 251/2/2 
f 129/2/2 246/2/2 251/2/2 
f 251/2/2 250/2/2 252/2/2 
f 249/2/2 126/2/2 253/2/2 
f 253/2/2 126/2/2 132/2/2 
f 129/2/2 251/2/2 131/2/2 
f 131/2/2 251/2/2 254/2/2 
f 255/1/2 256/1/2 257/1/2 
f 257/1/2 256/1/2 258/1/2 
f 25/2/3 11/2/3 12/2/3 
f 35/2/3 11/2/3 25/2/3 
f 259/2/3 25/2/3 27/2/3 
f 259/2/3 33/2/3 35/2/3 
f 259/2/3 35/2/3 25/2/3 
f 260/2/3 33/2/3 259/2/3 
f 261/2/3 259/2/3 27/2/3 
f 261/4/3 260/4/3 259/4/3 
f 262/2/3 33/2/3 260/2/3 
f 262/4/3 260/4/3 261/4/3 
f 263/2/3 261/2/3 27/2/3 
f 263/2/3 262/2/3 261/2/3 
f 264/2/3 33/2/3 262/2/3 
f 264/2/3 262/2/3 263/2/3 
f 265/2/3 263/2/3 27/2/3 
f 265/4/3 264/4/3 263/4/3 
f 266/2/3 33/2/3 264/2/3 
f 266/4/3 264/4/3 265/4/3 
f 223/2/3 265/2/3 27/2/3 
f 223/2/3 266/2/3 265/2/3 
f 225/2/3 266/2/3 223/2/3 
f 231/2/3 33/2/3 266/2/3 
f 231/2/3 266/2/3 225/2/3 
f 233/2/3 33/2/3 231/2/3 
f 247/2/3 231/2/3 225/2/3 
f 248/2/3 231/2/3 247/2/3 
f 26/2/3 5/2/3 7/2/3 
f 28/2/3 5/2/3 26/2/3 
f 34/2/3 17/2/3 13/2/3 
f 36/2/3 17/2/3 34/2/3 
f 110/3/3 107/3/3 106/3/3 
f 114/3/3 110/3/3 112/3/3 
f 118/3/3 114/3/3 116/3/3 
f 122/3/3 118/3/3 120/3/3 
f 138/3/3 122/3/3 124/3/3 
f 140/3/3 118/3/3 122/3/3 
f 140/3/3 122/3/3 138/3/3 
f 142/3/3 118/3/3 140/3/3 
f 144/3/3 114/3/3 118/3/3 
f 144/3/3 118/3/3 142/3/3 
f 146/3/3 114/3/3 144/3/3 
f 148/3/3 110/3/3 114/3/3 
f 148/3/3 114/3/3 146/3/3 
f 150/3/3 110/3/3 148/3/3 
f 152/3/3 107/3/3 110/3/3 
f 152/3/3 110/3/3 150/3/3 
f 154/3/3 107/3/3 152/3/3 
f 156/3/3 107/3/3 154/3/3 
f 162/3/3 107/3/3 156/3/3 
f 163/3/3 107/3/3 162/3/3 
f 199/1/3 53/1/3 54/1/3 
f 200/1/3 53/1/3 199/1/3 
f 205/1/3 59/1/3 61/1/3 
f 207/1/3 59/1/3 205/1/3 
f 243/2/3 226/2/3 224/2/3 
f 244/2/3 226/2/3 243/2/3 
f 249/2/3 234/2/3 232/2/3 
f 253/2/3 234/2/3 249/2/3 
f 49/1/3 21/1/3 23/1/3 
f 55/1/3 21/1/3 49/1/3 
f 60/1/3 41/1/3 43/1/3 
f 62/1/3 41/1/3 60/1/3 
f 73/1/3 49/1/3 50/1/3 
f 95/1/3 67/1/3 62/1/3 
f 105/1/3 95/1/3 62/1/3 
f 105/1/3 93/1/3 95/1/3 
f 104/1/3 93/1/3 105/1/3 
f 111/1/3 105/1/3 62/1/3 
f 113/1/3 105/1/3 111/1/3 
f 115/1/3 111/1/3 62/1/3 
f 117/1/3 111/1/3 115/1/3 
f 119/1/3 115/1/3 62/1/3 
f 121/1/3 115/1/3 119/1/3 
f 123/1/3 119/1/3 62/1/3 
f 125/1/3 119/1/3 123/1/3 
f 139/1/3 123/1/3 62/1/3 
f 143/1/3 141/1/3 139/1/3 
f 147/1/3 145/1/3 143/1/3 
f 151/1/3 149/1/3 147/1/3 
f 155/1/3 153/1/3 151/1/3 
f 158/1/3 155/1/3 151/1/3 
f 158/1/3 157/1/3 155/1/3 
f 160/1/3 157/1/3 158/1/3 
f 171/1/3 73/1/3 75/1/3 
f 173/1/3 49/1/3 73/1/3 
f 173/1/3 73/1/3 171/1/3 
f 195/1/3 49/1/3 173/1/3 
f 196/1/3 49/1/3 195/1/3 
f 208/1/3 139/1/3 62/1/3 
f 208/1/3 151/1/3 147/1/3 
f 208/1/3 147/1/3 143/1/3 
f 208/1/3 143/1/3 139/1/3 
f 208/1/3 158/1/3 151/1/3 
f 213/1/3 158/1/3 208/1/3 
f 219/1/3 201/1/3 196/1/3 
f 221/1/3 201/1/3 219/1/3 
f 239/1/3 208/1/3 206/1/3 
f 241/1/3 208/1/3 239/1/3 
f 134/1/3 1/1/3 3/1/3 
f 6/1/3 1/1/3 134/1/3 
f 18/1/3 1/1/3 6/1/3 
f 136/1/3 1/1/3 18/1/3 
f 74/1/3 45/1/3 47/1/3 
f 76/1/3 45/1/3 74/1/3 
f 94/1/3 81/1/3 83/1/3 
f 96/1/3 81/1/3 94/1/3 
f 108/1/3 97/1/3 96/1/3 
f 109/1/3 97/1/3 108/1/3 
f 179/1/3 161/1/3 159/1/3 
f 181/1/3 161/1/3 179/1/3 
f 191/1/3 174/1/3 172/1/3 
f 193/1/3 174/1/3 191/1/3 
f 255/1/3 126/1/3 128/1/3 
f 255/1/3 130/1/3 132/1/3 
f 255/1/3 132/1/3 126/1/3 
f 257/1/3 130/1/3 255/1/3 
f 98/1/3 90/1/3 84/1/3 
f 99/1/3 90/1/3 98/1/3 
f 182/1/3 166/1/3 164/1/3 
f 189/1/3 166/1/3 182/1/3 
f 82/1/3 71/1/3 68/1/3 
f 85/1/3 71/1/3 82/1/3 
f 214/1/3 183/1/3 180/1/3 
f 217/1/3 183/1/3 214/1/3 
f 91/1/4 92/1/4 102/1/4 
f 102/1/4 92/1/4 100/1/4 
f 167/1/4 169/1/4 188/1/4 
f 188/1/4 169/1/4 190/1/4 
f 2/1/4 4/1/4 135/1/4 
f 135/1/4 4/1/4 10/1/4 
f 10/1/4 4/1/4 19/1/4 
f 19/1/4 4/1/4 137/1/4 
f 46/1/4 48/1/4 79/1/4 
f 79/1/4 48/1/4 77/1/4 
f 69/1/4 72/1/4 88/1/4 
f 88/1/4 72/1/4 86/1/4 
f 101/1/4 103/1/4 168/1/4 
f 168/1/4 103/1/4 170/1/4 
f 175/1/4 177/1/4 192/1/4 
f 192/1/4 177/1/4 194/1/4 
f 184/1/4 186/1/4 215/1/4 
f 215/1/4 186/1/4 218/1/4 
f 127/1/4 129/1/4 256/1/4 
f 131/1/4 133/1/4 256/1/4 
f 129/1/4 131/1/4 256/1/4 
f 256/1/4 133/1/4 258/1/4 
f 22/1/4 24/1/4 52/1/4 
f 52/1/4 24/1/4 56/1/4 
f 42/1/4 44/1/4 65/1/4 
f 65/1/4 44/1/4 63/1/4 
f 51/1/4 52/1/4 80/1/4 
f 63/1/4 70/1/4 87/1/4 
f 78/1/4 80/1/4 176/1/4 
f 80/1/4 52/1/4 178/1/4 
f 176/1/4 80/1/4 178/1/4 
f 87/1/4 89/1/4 185/1/4 
f 63/1/4 87/1/4 185/1/4 
f 185/1/4 89/1/4 187/1/4 
f 178/1/4 52/1/4 197/1/4 
f 197/1/4 52/1/4 198/1/4 
f 63/1/4 185/1/4 211/1/4 
f 211/1/4 185/1/4 216/1/4 
f 198/1/4 203/1/4 220/1/4 
f 220/1/4 203/1/4 222/1/4 
f 209/1/4 211/1/4 240/1/4 
f 240/1/4 211/1/4 242/1/4 
f 9/2/4 8/2/4 31/2/4 
f 31/2/4 8/2/4 29/2/4 
f 14/2/4 20/2/4 39/2/4 
f 39/2/4 20/2/4 37/2/4 
f 57/2/4 58/2/4 202/2/4 
f 202/2/4 58/2/4 204/2/4 
f 64/1/4 66/1/4 210/1/4 
f 210/1/4 66/1/4 212/1/4 
f 227/2/4 229/2/4 245/2/4 
f 245/2/4 229/2/4 246/2/4 
f 235/2/4 237/2/4 251/2/4 
f 251/2/4 237/2/4 254/2/4 
f 15/2/4 16/2/4 32/2/4 
f 32/2/4 16/2/4 38/2/4 
f 30/2/4 32/2/4 228/2/4 
f 38/2/4 40/2/4 228/2/4 
f 32/2/4 38/2/4 228/2/4 
f 228/2/4 40/2/4 230/2/4 
f 230/2/4 40/2/4 236/2/4 
f 236/2/4 40/2/4 238/2/4 
f 230/2/4 236/2/4 250/2/4 
f 250/2/4 236/2/4 252/2/4 
f 74/1/5 171/1/5 75/1/5 
f 172/1/5 171/1/5 74/1/5 
f 46/1/5 74/1/5 47/1/5 
f 46/1/5 191/1/5 172/1/5 
f 46/1/5 172/1/5 74/1/5 
f 79/1/5 191/1/5 46/1/5 
f 175/1/5 191/1/5 79/1/5 
f 192/1/5 191/1/5 175/1/5 
f 78/1/5 175/1/5 79/1/5 
f 176/1/5 175/1/5 78/1/5 
f 45/1/5 73/1/5 50/1/5 
f 76/1/5 73/1/5 45/1/5 
f 174/1/5 195/1/5 173/1/5 
f 193/1/5 195/1/5 174/1/5 
f 2/1/5 134/1/5 3/1/5 
f 135/1/5 134/1/5 2/1/5 
f 127/1/5 255/1/5 128/1/5 
f 256/1/5 255/1/5 127/1/5 
f 51/1/5 77/1/5 48/1/5 
f 80/1/5 77/1/5 51/1/5 
f 178/1/5 194/1/5 177/1/5 
f 197/1/5 194/1/5 178/1/5 
f 49/1/5 199/1/5 54/1/5 
f 196/1/5 199/1/5 49/1/5 
f 22/1/5 49/1/5 23/1/5 
f 52/1/5 49/1/5 22/1/5 
f 198/1/5 219/1/5 196/1/5 
f 220/1/5 219/1/5 198/1/5 
f 57/2/5 198/2/5 52/2/5 
f 202/2/5 198/2/5 57/2/5 
f 26/2/5 223/2/5 27/2/5 
f 53/2/5 223/2/5 26/2/5 
f 200/2/5 223/2/5 53/2/5 
f 224/2/5 223/2/5 200/2/5 
f 21/2/5 26/2/5 7/2/5 
f 21/1/5 53/1/5 26/1/5 
f 55/1/5 53/1/5 21/1/5 
f 201/1/5 224/1/5 200/1/5 
f 221/2/5 243/2/5 224/2/5 
f 221/1/5 224/1/5 201/1/5 
f 6/2/5 21/2/5 7/2/5 
f 126/2/5 243/2/5 221/2/5 
f 10/2/5 21/2/5 6/2/5 
f 129/2/5 126/2/5 221/2/5 
f 24/2/5 21/2/5 10/2/5 
f 222/2/5 129/2/5 221/2/5 
f 9/2/5 56/2/5 24/2/5 
f 9/2/5 24/2/5 10/2/5 
f 31/2/5 56/2/5 9/2/5 
f 58/2/5 56/2/5 31/2/5 
f 204/2/5 222/2/5 203/2/5 
f 227/2/5 129/2/5 222/2/5 
f 227/2/5 222/2/5 204/2/5 
f 245/2/5 129/2/5 227/2/5 
f 30/2/5 58/2/5 31/2/5 
f 30/2/5 204/2/5 58/2/5 
f 30/2/5 227/2/5 204/2/5 
f 228/2/5 227/2/5 30/2/5 
f 5/2/5 25/2/5 12/2/5 
f 28/2/5 25/2/5 5/2/5 
f 226/2/5 247/2/5 225/2/5 
f 244/2/5 247/2/5 226/2/5 
f 15/2/5 29/2/5 8/2/5 
f 32/2/5 29/2/5 15/2/5 
f 230/2/5 246/2/5 229/2/5 
f 250/2/5 246/2/5 230/2/5 
f 123/3/5 138/3/5 124/3/5 
f 139/3/5 138/3/5 123/3/5 
f 119/3/5 122/3/5 120/3/5 
f 125/3/5 122/3/5 119/3/5 
f 141/3/5 142/3/5 140/3/5 
f 143/3/5 142/3/5 141/3/5 
f 115/3/5 118/3/5 116/3/5 
f 121/3/5 118/3/5 115/3/5 
f 145/3/5 146/3/5 144/3/5 
f 147/3/5 146/3/5 145/3/5 
f 111/3/5 114/3/5 112/3/5 
f 117/3/5 114/3/5 111/3/5 
f 149/3/5 150/3/5 148/3/5 
f 151/3/5 150/3/5 149/3/5 
f 105/3/5 110/3/5 106/3/5 
f 113/3/5 110/3/5 105/3/5 
f 153/3/5 154/3/5 152/3/5 
f 155/3/5 154/3/5 153/3/5 
f 157/3/5 162/3/5 156/3/5 
f 160/3/5 162/3/5 157/3/5 
f 11/2/6 35/2/6 13/2/6 
f 13/2/6 35/2/6 34/2/6 
f 231/2/6 248/2/6 232/2/6 
f 232/2/6 248/2/6 249/2/6 
f 14/2/6 39/2/6 16/2/6 
f 16/2/6 39/2/6 38/2/6 
f 235/2/6 251/2/6 236/2/6 
f 236/2/6 251/2/6 252/2/6 
f 33/2/6 233/2/6 36/2/6 
f 36/2/6 233/2/6 61/2/6 
f 61/2/6 233/2/6 205/2/6 
f 205/2/6 233/2/6 234/2/6 
f 17/2/6 36/2/6 43/2/6 
f 36/1/6 61/1/6 43/1/6 
f 43/1/6 61/1/6 60/1/6 
f 205/1/6 234/1/6 206/1/6 
f 234/2/6 253/2/6 239/2/6 
f 206/1/6 234/1/6 239/1/6 
f 17/2/6 43/2/6 18/2/6 
f 239/2/6 253/2/6 132/2/6 
f 18/2/6 43/2/6 19/2/6 
f 239/2/6 132/2/6 131/2/6 
f 19/2/6 43/2/6 42/2/6 
f 239/2/6 131/2/6 240/2/6 
f 42/2/6 65/2/6 20/2/6 
f 19/2/6 42/2/6 20/2/6 
f 20/2/6 65/2/6 37/2/6 
f 37/2/6 65/2/6 64/2/6 
f 209/2/6 240/2/6 210/2/6 
f 240/2/6 131/2/6 237/2/6 
f 210/2/6 240/2/6 237/2/6 
f 237/2/6 131/2/6 254/2/6 
f 37/2/6 64/2/6 40/2/6 
f 64/2/6 210/2/6 40/2/6 
f 210/2/6 237/2/6 40/2/6 
f 40/2/6 237/2/6 238/2/6 
f 1/1/6 136/1/6 4/1/6 
f 4/1/6 136/1/6 137/1/6 
f 130/1/6 257/1/6 133/1/6 
f 133/1/6 257/1/6 258/1/6 
f 59/1/6 207/1/6 62/1/6 
f 62/1/6 207/1/6 208/1/6 
f 41/1/6 62/1/6 44/1/6 
f 44/1/6 62/1/6 63/1/6 
f 208/1/6 241/1/6 211/1/6 
f 211/1/6 241/1/6 242/1/6 
f 63/1/6 211/1/6 66/1/6 
f 66/1/6 211/1/6 212/1/6 
f 67/1/6 95/1/6 83/1/6 
f 83/1/6 95/1/6 94/1/6 
f 158/1/6 213/1/6 159/1/6 
f 159/1/6 213/1/6 179/1/6 
f 67/1/6 83/1/6 68/1/6 
f 68/1/6 83/1/6 82/1/6 
f 179/1/6 213/1/6 180/1/6 
f 180/1/6 213/1/6 214/1/6 
f 69/1/6 88/1/6 70/1/6 
f 70/1/6 88/1/6 87/1/6 
f 184/1/6 215/1/6 185/1/6 
f 185/1/6 215/1/6 216/1/6 
f 93/1/6 104/1/6 96/1/6 
f 96/1/6 104/1/6 108/1/6 
f 81/1/6 96/1/6 84/1/6 
f 84/1/6 96/1/6 98/1/6 
f 161/1/6 181/1/6 164/1/6 
f 164/1/6 181/1/6 182/1/6 
f 71/1/6 85/1/6 91/1/6 
f 183/1/6 217/1/6 188/1/6 
f 91/1/6 102/1/6 72/1/6 
f 71/1/6 91/1/6 72/1/6 
f 72/1/6 102/1/6 86/1/6 
f 86/1/6 102/1/6 101/1/6 
f 167/1/6 188/1/6 168/1/6 
f 188/1/6 217/1/6 186/1/6 
f 168/1/6 188/1/6 186/1/6 
f 186/1/6 217/1/6 218/1/6 
f 86/1/6 101/1/6 89/1/6 
f 101/1/6 168/1/6 89/1/6 
f 168/1/6 186/1/6 89/1/6 
f 89/1/6 186/1/6 187/1/6 
f 107/3/6 163/3/6 109/3/6 
f 109/3/6 163/3/6 165/3/6 
f 97/1/6 109/1/6 99/1/6 
f 109/1/6 165/1/6 99/1/6 
f 99/1/6 165/1/6 166/1/6 
f 99/1/6 166/1/6 92/1/6 
f 166/1/6 189/1/6 92/1/6 
f 90/1/6 99/1/6 92/1/6 
f 92/1/6 189/1/6 100/1/6 
f 100/1/6 189/1/6 169/1/6 
f 169/1/6 189/1/6 190/1/6 
f 100/1/6 169/1/6 103/1/6 
f 103/1/6 169/1/6 170/1/6 
# 528 faces

