# MagicaVoxel @ Ephtracy

# group
o 

# material
mtllib brazo.mtl
usemtl palette

# normals
vn -1 0 0
vn 1 0 0
vn 0 0 1
vn 0 0 -1
vn 0 -1 0
vn 0 1 0

# texcoords
vt 0.853516 0.5
vt 0.908203 0.5
vt 0.982422 0.5

# verts
v -2.6 4.5 0.2
v -2.6 4.5 -0.2
v -2.6 5 0.2
v -2.6 5 -0.2
v -1 4.5 0.2
v -1 4.5 -0.2
v -1 5 0.2
v -1 5 -0.2
v -2.6 4.5 0.2
v -2.6 5 0.2
v -1.8 4.5 0.2
v -1.8 5 0.2
v -1.6 4.5 0.2
v -1.6 5 0.2
v -1 4.5 0.2
v -1 5 0.2
v -2.6 4.5 -0.2
v -2.6 5 -0.2
v -1.8 4.5 -0.2
v -1.8 5 -0.2
v -1.6 4.5 -0.2
v -1.6 5 -0.2
v -1 4.5 -0.2
v -1 5 -0.2
v -2.6 4.5 0.2
v -1.8 4.5 0.2
v -1.6 4.5 0.2
v -1 4.5 0.2
v -2.6 4.5 -0.2
v -1.8 4.5 -0.2
v -1.6 4.5 -0.2
v -1 4.5 -0.2
v -2.6 5 0.2
v -1.8 5 0.2
v -1.6 5 0.2
v -1 5 0.2
v -2.6 5 -0.2
v -1.8 5 -0.2
v -1.6 5 -0.2
v -1 5 -0.2

# faces
f 3/3/1 2/3/1 1/3/1
f 4/3/1 2/3/1 3/3/1
f 5/2/2 6/2/2 7/2/2
f 7/2/2 6/2/2 8/2/2
f 11/3/3 10/3/3 9/3/3
f 12/3/3 10/3/3 11/3/3
f 13/1/3 12/1/3 11/1/3
f 14/1/3 12/1/3 13/1/3
f 15/2/3 14/2/3 13/2/3
f 16/2/3 14/2/3 15/2/3
f 17/3/4 18/3/4 19/3/4
f 19/3/4 18/3/4 20/3/4
f 19/1/4 20/1/4 21/1/4
f 21/1/4 20/1/4 22/1/4
f 21/2/4 22/2/4 23/2/4
f 23/2/4 22/2/4 24/2/4
f 29/3/5 26/3/5 25/3/5
f 30/1/5 27/1/5 26/1/5
f 30/3/5 26/3/5 29/3/5
f 31/2/5 28/2/5 27/2/5
f 31/1/5 27/1/5 30/1/5
f 32/2/5 28/2/5 31/2/5
f 33/3/6 34/3/6 37/3/6
f 34/1/6 35/1/6 38/1/6
f 37/3/6 34/3/6 38/3/6
f 35/2/6 36/2/6 39/2/6
f 38/1/6 35/1/6 39/1/6
f 39/2/6 36/2/6 40/2/6
