# 3ds Max Wavefront OBJ Exporter v0.99 - (c)2007 guruware
# File Created: 10.05.2022 11:36:26

mtllib brazo.mtl

#
# object brazo
#

v  -1.6138 0.2498 0.1916
v  -1.6138 -0.2502 -0.2084
v  -1.6138 -0.2502 0.1916
v  -1.6138 0.2498 -0.2084
v  -0.0138 -0.2502 0.1916
v  -0.0138 -0.2502 -0.2084
v  -0.0138 0.2498 0.1916
v  -0.0138 0.2498 -0.2084
v  -0.8138 -0.2502 0.1916
v  -0.8138 0.2498 0.1916
v  -0.6138 -0.2502 0.1916
v  -0.6138 0.2498 0.1916
v  -0.8138 -0.2502 -0.2084
v  -0.8138 0.2498 -0.2084
v  -0.6138 -0.2502 -0.2084
v  -0.6138 0.2498 -0.2084
# 16 vertices

vn -1.0000 0.0000 -0.0000
vn 1.0000 0.0000 -0.0000
vn 0.0000 -0.0000 1.0000
vn 0.0000 0.0000 -1.0000
vn 0.0000 -1.0000 -0.0000
vn 0.0000 1.0000 0.0000
# 6 vertex normals

vt 0.9824 0.5000 0.0000
vt 0.9082 0.5000 0.0000
vt 0.8535 0.5000 0.0000
# 3 texture coords

o brazo
g brazo
usemtl palette
s 1
f 1/1/1 2/1/1 3/1/1 
f 4/1/1 2/1/1 1/1/1 
f 5/2/2 6/2/2 7/2/2 
f 7/2/2 6/2/2 8/2/2 
f 9/1/3 1/1/3 3/1/3 
f 10/1/3 1/1/3 9/1/3 
f 11/3/3 10/3/3 9/3/3 
f 12/3/3 10/3/3 11/3/3 
f 5/2/3 12/2/3 11/2/3 
f 7/2/3 12/2/3 5/2/3 
f 2/1/4 4/1/4 13/1/4 
f 13/1/4 4/1/4 14/1/4 
f 13/3/4 14/3/4 15/3/4 
f 15/3/4 14/3/4 16/3/4 
f 15/2/4 16/2/4 6/2/4 
f 6/2/4 16/2/4 8/2/4 
f 2/1/5 9/1/5 3/1/5 
f 13/3/5 11/3/5 9/3/5 
f 13/1/5 9/1/5 2/1/5 
f 15/2/5 5/2/5 11/2/5 
f 15/3/5 11/3/5 13/3/5 
f 6/2/5 5/2/5 15/2/5 
f 1/1/6 10/1/6 4/1/6 
f 10/3/6 12/3/6 14/3/6 
f 4/1/6 10/1/6 14/1/6 
f 12/2/6 7/2/6 16/2/6 
f 14/3/6 12/3/6 16/3/6 
f 16/2/6 7/2/6 8/2/6 
# 28 faces

