# 3ds Max Wavefront OBJ Exporter v0.99 - (c)2007 guruware
# File Created: 10.05.2022 11:54:37

mtllib pierna2.mtl

#
# object pierna2
#

v  -0.5546 -0.0001 0.4090
v  -0.5546 -0.4001 0.3090
v  -0.5546 -0.4001 0.4090
v  -0.5546 -0.0001 0.3090
v  -0.5546 -0.0001 -0.2910
v  -0.5546 -0.4001 -0.3910
v  -0.5546 -0.4001 -0.2910
v  -0.5546 -0.0001 -0.3910
v  -0.2546 -0.4001 -0.2910
v  -0.2546 -1.6001 -0.2910
v  -0.2546 -1.6001 0.3090
v  -0.2546 -0.3001 0.3090
v  -0.2546 -0.0001 0.3090
v  -0.2546 -0.0001 -0.2910
v  -0.1546 -2.3001 0.7090
v  -0.1546 -2.5001 0.1090
v  -0.1546 -2.5001 0.7090
v  -0.1546 -2.3001 0.5090
v  -0.1546 -2.3001 0.1090
v  -0.1546 -2.2001 0.5090
v  -0.1546 -2.3001 -0.1910
v  -0.1546 -2.2001 0.3090
v  -0.1546 -1.6001 0.3090
v  -0.1546 -1.6001 -0.1910
v  -0.1546 -0.3001 0.4090
v  -0.1546 -0.4001 0.3090
v  -0.1546 -0.4001 0.4090
v  -0.1546 -0.3001 0.3090
v  -0.0546 -2.4001 -0.0910
v  -0.0546 -2.5001 -0.1910
v  -0.0546 -2.5001 -0.0910
v  -0.0546 -2.3001 0.1090
v  -0.0546 -2.4001 0.1090
v  -0.0546 -2.3001 -0.1910
v  -0.0546 -0.3001 -0.2910
v  -0.0546 -0.4001 -0.3910
v  -0.0546 -0.4001 -0.2910
v  -0.0546 -0.3001 -0.3910
v  0.2454 -0.3001 0.4090
v  0.2454 -0.4001 0.3090
v  0.2454 -0.4001 0.4090
v  0.2454 -0.3001 0.3090
v  0.3454 -0.3001 -0.2910
v  0.3454 -0.4001 -0.3910
v  0.3454 -0.4001 -0.2910
v  0.3454 -0.3001 -0.3910
v  -0.3546 -0.4001 0.4090
v  -0.3546 -0.4001 0.3090
v  -0.3546 -0.3001 0.4090
v  -0.3546 -0.3001 0.3090
v  -0.2546 -0.4001 -0.3910
v  -0.2546 -0.3001 -0.2910
v  -0.2546 -0.3001 -0.3910
v  0.0454 -0.4001 0.4090
v  0.0454 -0.4001 0.3090
v  0.0454 -0.3001 0.4090
v  0.0454 -0.3001 0.3090
v  0.1454 -0.4001 -0.2910
v  0.1454 -0.4001 -0.3910
v  0.1454 -0.3001 -0.2910
v  0.1454 -0.3001 -0.3910
v  0.2454 -2.5001 -0.0910
v  0.2454 -2.5001 -0.1910
v  0.2454 -2.4001 -0.0910
v  0.2454 -2.4001 0.1090
v  0.2454 -2.3001 0.1090
v  0.2454 -2.3001 -0.1910
v  0.3454 -2.5001 0.7090
v  0.3454 -2.5001 0.1090
v  0.3454 -2.3001 0.7090
v  0.3454 -2.3001 0.5090
v  0.3454 -2.3001 0.1090
v  0.3454 -2.3001 -0.1910
v  0.3454 -2.2001 0.5090
v  0.3454 -2.2001 0.3090
v  0.3454 -1.6001 0.3090
v  0.3454 -1.6001 -0.1910
v  0.4454 -1.6001 0.3090
v  0.4454 -1.6001 -0.2910
v  0.4454 -0.4001 0.3090
v  0.4454 -0.4001 0.2090
v  0.4454 -0.4001 -0.0910
v  0.4454 -0.4001 -0.2910
v  0.4454 -0.4001 0.4090
v  0.4454 -0.3001 0.4090
v  0.4454 -0.3001 0.3090
v  0.4454 -0.3001 0.2090
v  0.4454 -0.3001 -0.0910
v  0.4454 -0.3001 -0.2910
v  0.5454 -0.4001 0.2090
v  0.5454 -0.4001 -0.0910
v  0.5454 -0.3001 0.2090
v  0.5454 -0.3001 -0.0910
v  0.5454 -0.4001 -0.2910
v  0.5454 -0.4001 -0.3910
v  0.5454 -0.3001 -0.2910
v  0.5454 -0.0001 0.4090
v  0.5454 -0.3001 0.4090
v  0.5454 -0.0001 -0.3910
v  0.3454 -0.0001 0.3090
v  -0.1546 -0.0001 0.1090
v  0.3454 -0.0001 0.1090
v  -0.1546 -0.0001 -0.1910
v  0.3454 -0.0001 -0.1910
v  0.3454 -0.0001 -0.2910
# 105 vertices

vn -1.0000 0.0000 -0.0000
vn 1.0000 0.0000 -0.0000
vn 0.0000 0.0000 1.0000
vn 0.0000 0.0000 -1.0000
vn 0.0000 -1.0000 -0.0000
vn 0.0000 1.0000 -0.0000
# 6 vertex normals

vt 0.9707 0.5000 0.0000
vt 0.9434 0.5000 0.0000
vt 0.9512 0.5000 0.0000
vt 0.9082 0.5000 0.0000
# 4 texture coords

o pierna2
g pierna2
usemtl palette
s 1
f 1/1/1 2/1/1 3/1/1 
f 4/1/1 2/1/1 1/1/1 
f 5/1/1 6/1/1 7/1/1 
f 8/1/1 6/1/1 5/1/1 
f 9/2/1 10/2/1 11/2/1 
f 12/2/1 9/2/1 11/2/1 
f 13/2/1 9/2/1 12/2/1 
f 14/2/1 9/2/1 13/2/1 
f 15/3/1 16/3/1 17/3/1 
f 18/3/1 16/3/1 15/3/1 
f 19/3/1 16/3/1 18/3/1 
f 20/3/1 21/3/1 19/3/1 
f 20/3/1 19/3/1 18/3/1 
f 22/3/1 21/3/1 20/3/1 
f 23/3/1 21/3/1 22/3/1 
f 24/3/1 21/3/1 23/3/1 
f 25/1/1 26/1/1 27/1/1 
f 28/1/1 26/1/1 25/1/1 
f 29/3/1 30/3/1 31/3/1 
f 32/3/1 29/3/1 33/3/1 
f 34/3/1 30/3/1 29/3/1 
f 34/3/1 29/3/1 32/3/1 
f 35/1/1 36/1/1 37/1/1 
f 38/1/1 36/1/1 35/1/1 
f 39/1/1 40/1/1 41/1/1 
f 42/1/1 40/1/1 39/1/1 
f 43/1/1 44/1/1 45/1/1 
f 46/1/1 44/1/1 43/1/1 
f 47/1/2 48/1/2 49/1/2 
f 49/1/2 48/1/2 50/1/2 
f 9/1/2 51/1/2 52/1/2 
f 52/1/2 51/1/2 53/1/2 
f 54/1/2 55/1/2 56/1/2 
f 56/1/2 55/1/2 57/1/2 
f 58/1/2 59/1/2 60/1/2 
f 60/1/2 59/1/2 61/1/2 
f 62/3/2 63/3/2 64/3/2 
f 65/3/2 64/3/2 66/3/2 
f 64/3/2 63/3/2 67/3/2 
f 66/3/2 64/3/2 67/3/2 
f 68/3/2 69/3/2 70/3/2 
f 70/3/2 69/3/2 71/3/2 
f 71/3/2 69/3/2 72/3/2 
f 72/3/2 73/3/2 74/3/2 
f 71/3/2 72/3/2 74/3/2 
f 74/3/2 73/3/2 75/3/2 
f 75/3/2 73/3/2 76/3/2 
f 76/3/2 73/3/2 77/3/2 
f 78/2/2 79/2/2 80/2/2 
f 80/2/2 79/2/2 81/2/2 
f 81/2/2 79/2/2 82/2/2 
f 82/2/2 79/2/2 83/2/2 
f 84/1/2 80/1/2 85/1/2 
f 80/2/2 81/2/2 86/2/2 
f 85/1/2 80/1/2 86/1/2 
f 86/2/2 81/2/2 87/2/2 
f 82/2/2 83/2/2 88/2/2 
f 88/2/2 83/2/2 89/2/2 
f 90/1/2 91/1/2 92/1/2 
f 92/1/2 91/1/2 93/1/2 
f 94/1/2 95/1/2 96/1/2 
f 92/1/2 93/1/2 97/1/2 
f 93/1/2 96/1/2 97/1/2 
f 98/1/2 92/1/2 97/1/2 
f 96/1/2 95/1/2 99/1/2 
f 97/1/2 96/1/2 99/1/2 
f 68/3/3 15/3/3 17/3/3 
f 70/3/3 15/3/3 68/3/3 
f 71/3/3 20/3/3 18/3/3 
f 74/3/3 20/3/3 71/3/3 
f 47/1/3 1/1/3 3/1/3 
f 49/1/3 1/1/3 47/1/3 
f 25/1/3 1/1/3 49/1/3 
f 54/1/3 25/1/3 27/1/3 
f 56/1/3 1/1/3 25/1/3 
f 56/1/3 25/1/3 54/1/3 
f 39/1/3 1/1/3 56/1/3 
f 84/1/3 39/1/3 41/1/3 
f 85/1/3 1/1/3 39/1/3 
f 85/1/3 39/1/3 84/1/3 
f 98/1/3 1/1/3 85/1/3 
f 97/1/3 1/1/3 98/1/3 
f 23/2/3 12/2/3 11/2/3 
f 26/2/3 12/2/3 23/2/3 
f 28/2/3 12/2/3 26/2/3 
f 55/2/3 26/2/3 23/2/3 
f 40/2/3 55/2/3 23/2/3 
f 40/2/3 57/2/3 55/2/3 
f 42/2/3 57/2/3 40/2/3 
f 75/3/3 23/3/3 22/3/3 
f 76/2/3 40/2/3 23/2/3 
f 76/3/3 23/3/3 75/3/3 
f 78/2/3 40/2/3 76/2/3 
f 80/2/3 40/2/3 78/2/3 
f 90/1/3 87/1/3 81/1/3 
f 92/1/3 87/1/3 90/1/3 
f 62/3/3 29/3/3 31/3/3 
f 64/3/3 29/3/3 62/3/3 
f 9/1/3 5/1/3 7/1/3 
f 14/1/3 5/1/3 9/1/3 
f 94/1/3 89/1/3 83/1/3 
f 96/1/3 89/1/3 94/1/3 
f 2/1/4 4/1/4 48/1/4 
f 48/1/4 4/1/4 50/1/4 
f 50/1/4 4/1/4 12/1/4 
f 12/1/4 4/1/4 13/1/4 
f 16/3/4 19/3/4 33/3/4 
f 33/3/4 19/3/4 32/3/4 
f 16/3/4 33/3/4 65/3/4 
f 16/3/4 65/3/4 69/3/4 
f 65/3/4 66/3/4 69/3/4 
f 69/3/4 66/3/4 72/3/4 
f 82/1/4 88/1/4 91/1/4 
f 91/1/4 88/1/4 93/1/4 
f 21/3/4 24/3/4 34/3/4 
f 30/3/4 34/3/4 63/3/4 
f 34/3/4 24/3/4 67/3/4 
f 63/3/4 34/3/4 67/3/4 
f 67/3/4 24/3/4 73/3/4 
f 73/3/4 24/3/4 77/3/4 
f 10/2/4 9/2/4 37/2/4 
f 9/2/4 52/2/4 37/2/4 
f 37/2/4 52/2/4 35/2/4 
f 10/2/4 37/2/4 58/2/4 
f 10/2/4 58/2/4 45/2/4 
f 58/2/4 60/2/4 45/2/4 
f 45/2/4 60/2/4 43/2/4 
f 10/2/4 45/2/4 79/2/4 
f 79/2/4 45/2/4 83/2/4 
f 6/1/4 8/1/4 51/1/4 
f 51/1/4 8/1/4 53/1/4 
f 53/1/4 8/1/4 38/1/4 
f 36/1/4 38/1/4 59/1/4 
f 38/1/4 8/1/4 61/1/4 
f 59/1/4 38/1/4 61/1/4 
f 61/1/4 8/1/4 46/1/4 
f 44/1/4 46/1/4 95/1/4 
f 46/1/4 8/1/4 99/1/4 
f 95/1/4 46/1/4 99/1/4 
f 16/3/5 68/3/5 17/3/5 
f 69/3/5 68/3/5 16/3/5 
f 30/3/5 62/3/5 31/3/5 
f 63/3/5 62/3/5 30/3/5 
f 29/3/5 65/3/5 33/3/5 
f 64/3/5 65/3/5 29/3/5 
f 21/3/5 32/3/5 19/3/5 
f 34/3/5 32/3/5 21/3/5 
f 67/3/5 72/3/5 66/3/5 
f 73/3/5 72/3/5 67/3/5 
f 24/2/5 23/2/5 11/2/5 
f 77/2/5 78/2/5 76/2/5 
f 10/2/5 24/2/5 11/2/5 
f 10/2/5 77/2/5 24/2/5 
f 79/2/5 78/2/5 77/2/5 
f 79/2/5 77/2/5 10/2/5 
f 2/1/5 47/1/5 3/1/5 
f 48/1/5 47/1/5 2/1/5 
f 26/1/5 54/1/5 27/1/5 
f 55/1/5 54/1/5 26/1/5 
f 40/1/5 84/1/5 41/1/5 
f 80/1/5 84/1/5 40/1/5 
f 82/1/5 90/1/5 81/1/5 
f 91/1/5 90/1/5 82/1/5 
f 6/1/5 9/1/5 7/1/5 
f 51/1/5 9/1/5 6/1/5 
f 36/1/5 58/1/5 37/1/5 
f 59/1/5 58/1/5 36/1/5 
f 44/1/5 94/1/5 83/1/5 
f 44/1/5 83/1/5 45/1/5 
f 95/1/5 94/1/5 44/1/5 
f 50/1/5 25/1/5 49/1/5 
f 12/1/5 25/1/5 50/1/5 
f 28/1/5 25/1/5 12/1/5 
f 57/1/5 39/1/5 56/1/5 
f 42/1/5 39/1/5 57/1/5 
f 86/1/5 98/1/5 85/1/5 
f 87/1/5 98/1/5 86/1/5 
f 92/1/5 98/1/5 87/1/5 
f 89/1/5 93/1/5 88/1/5 
f 96/1/5 93/1/5 89/1/5 
f 53/1/5 35/1/5 52/1/5 
f 38/1/5 35/1/5 53/1/5 
f 61/1/5 43/1/5 60/1/5 
f 46/1/5 43/1/5 61/1/5 
f 15/3/6 70/3/6 18/3/6 
f 18/3/6 70/3/6 71/3/6 
f 20/3/6 74/3/6 22/3/6 
f 22/3/6 74/3/6 75/3/6 
f 1/1/6 97/1/6 4/1/6 
f 4/1/6 97/1/6 13/1/6 
f 13/1/6 97/1/6 100/1/6 
f 13/2/6 100/2/6 101/2/6 
f 100/1/6 97/1/6 102/1/6 
f 101/2/6 100/2/6 102/2/6 
f 13/2/6 101/2/6 103/2/6 
f 101/4/6 102/4/6 103/4/6 
f 102/1/6 97/1/6 104/1/6 
f 103/4/6 102/4/6 104/4/6 
f 13/2/6 103/2/6 14/2/6 
f 103/2/6 104/2/6 14/2/6 
f 104/1/6 97/1/6 105/1/6 
f 14/2/6 104/2/6 105/2/6 
f 5/1/6 14/1/6 8/1/6 
f 14/1/6 105/1/6 8/1/6 
f 105/1/6 97/1/6 99/1/6 
f 8/1/6 105/1/6 99/1/6 
# 206 faces

