# MagicaVoxel @ Ephtracy

# group
o 

# material
mtllib torso.mtl
usemtl palette

# normals
vn -1 0 0
vn 1 0 0
vn 0 0 1
vn 0 0 -1
vn 0 -1 0
vn 0 1 0

# texcoords
vt 0.845703 0.5
vt 0.853516 0.5
vt 0.908203 0.5
vt 0.912109 0.5
vt 0.916016 0.5
vt 0.919922 0.5
vt 0.943359 0.5
vt 0.978516 0.5
vt 0.982422 0.5

# verts
v -1 2.5 0.4
v -1 2.5 -0.4
v -1 2.7 0.4
v -1 2.7 -0.4
v -1 2.8 0.4
v -1 2.8 -0.4
v -1 2.9 0.4
v -1 2.9 -0.4
v -1 3 0.4
v -1 3 -0.4
v -1 3.3 0.4
v -1 3.3 -0.4
v -1 5.3 0.4
v -1 5.3 -0.4
v -0.4 4.9 -0.4
v -0.4 4.9 -0.5
v -0.4 5.2 -0.4
v -0.4 5.3 -0.4
v -0.4 5.3 -0.5
v -0.3 4.8 -0.4
v -0.3 4.8 -0.5
v -0.3 4.9 -0.4
v -0.3 4.9 -0.5
v 0.3 4.8 -0.4
v 0.3 4.8 -0.5
v 0.3 4.9 -0.4
v 0.3 4.9 -0.5
v 0.4 4.9 -0.4
v 0.4 4.9 -0.5
v 0.4 5.2 -0.4
v 0.4 5.3 -0.4
v 0.4 5.3 -0.5
v 1 2.5 0.4
v 1 2.5 -0.4
v 1 2.7 0.4
v 1 2.7 -0.4
v 1 2.8 0.4
v 1 2.8 -0.4
v 1 2.9 0.4
v 1 2.9 -0.4
v 1 3 0.4
v 1 3 -0.4
v 1 3.3 0.4
v 1 3.3 -0.4
v 1 5.3 0.4
v 1 5.3 -0.4
v -1 2.5 0.4
v -1 2.7 0.4
v -1 2.8 0.4
v -1 2.9 0.4
v -1 3 0.4
v -1 3.3 0.4
v -1 5.3 0.4
v -0.6 3.1 0.4
v -0.6 3.3 0.4
v -0.6 3.4 0.4
v -0.6 3.7 0.4
v -0.6 5.3 0.4
v -0.5 3.2 0.4
v -0.5 3.3 0.4
v -0.5 3.4 0.4
v -0.5 3.6 0.4
v -0.4 3.2 0.4
v -0.4 3.3 0.4
v -0.4 3.4 0.4
v -0.4 3.6 0.4
v -0.3 3.1 0.4
v -0.3 3.3 0.4
v -0.3 3.4 0.4
v -0.3 3.7 0.4
v -0.3 5.2 0.4
v -0.3 5.3 0.4
v -0.2 5 0.4
v -0.2 5.2 0.4
v -0.1 2.5 0.4
v -0.1 2.7 0.4
v -0.1 2.8 0.4
v -0.1 2.9 0.4
v -0.1 3 0.4
v -0.1 5 0.4
v 0.1 2.5 0.4
v 0.1 2.7 0.4
v 0.1 2.8 0.4
v 0.1 2.9 0.4
v 0.1 3 0.4
v 0.1 5 0.4
v 0.2 5 0.4
v 0.2 5.2 0.4
v 0.3 5.2 0.4
v 0.3 5.3 0.4
v 0.6 3.3 0.4
v 0.6 5.3 0.4
v 1 2.5 0.4
v 1 2.7 0.4
v 1 2.8 0.4
v 1 2.9 0.4
v 1 3 0.4
v 1 3.3 0.4
v 1 5.3 0.4
v -1 2.5 -0.4
v -1 2.7 -0.4
v -1 2.8 -0.4
v -1 2.9 -0.4
v -1 3 -0.4
v -1 3.3 -0.4
v -1 5.3 -0.4
v -0.6 5.2 -0.4
v -0.6 5.3 -0.4
v -0.4 4.9 -0.4
v -0.4 5.2 -0.4
v -0.4 5.3 -0.4
v -0.3 4.8 -0.4
v -0.3 4.9 -0.4
v 0.3 4.8 -0.4
v 0.3 4.9 -0.4
v 0.4 4.9 -0.4
v 0.4 5.2 -0.4
v 0.4 5.3 -0.4
v 0.6 5.2 -0.4
v 0.6 5.3 -0.4
v 1 2.5 -0.4
v 1 2.7 -0.4
v 1 2.8 -0.4
v 1 2.9 -0.4
v 1 3 -0.4
v 1 3.3 -0.4
v 1 5.3 -0.4
v -0.4 4.9 -0.5
v -0.4 5.3 -0.5
v -0.3 4.8 -0.5
v -0.3 4.9 -0.5
v -0.3 5.1 -0.5
v -0.1 4.9 -0.5
v -0.1 5.1 -0.5
v 0.3 4.8 -0.5
v 0.3 4.9 -0.5
v 0.4 4.9 -0.5
v 0.4 5.3 -0.5
v -1 2.5 0.4
v -0.1 2.5 0.4
v 0.1 2.5 0.4
v 1 2.5 0.4
v -0.1 2.5 0.3
v 0.1 2.5 0.3
v -1 2.5 -0.4
v 1 2.5 -0.4
v -0.3 4.8 -0.4
v 0.3 4.8 -0.4
v -0.3 4.8 -0.5
v 0.3 4.8 -0.5
v -0.4 4.9 -0.4
v -0.3 4.9 -0.4
v 0.3 4.9 -0.4
v 0.4 4.9 -0.4
v -0.4 4.9 -0.5
v -0.3 4.9 -0.5
v 0.3 4.9 -0.5
v 0.4 4.9 -0.5
v -1 5.3 0.4
v -0.6 5.3 0.4
v -0.3 5.3 0.4
v 0.3 5.3 0.4
v 0.6 5.3 0.4
v 1 5.3 0.4
v -0.9 5.3 0.3
v -0.6 5.3 0.3
v -0.4 5.3 0.3
v -0.3 5.3 0.3
v 0.3 5.3 0.3
v 0.4 5.3 0.3
v 0.6 5.3 0.3
v 0.9 5.3 0.3
v -0.9 5.3 -0.3
v -0.6 5.3 -0.3
v -0.4 5.3 -0.3
v 0.4 5.3 -0.3
v 0.6 5.3 -0.3
v 0.9 5.3 -0.3
v -1 5.3 -0.4
v -0.6 5.3 -0.4
v -0.4 5.3 -0.4
v 0.4 5.3 -0.4
v 0.6 5.3 -0.4
v 1 5.3 -0.4
v -0.4 5.3 -0.5
v 0.4 5.3 -0.5

# faces
f 3/5/1 2/5/1 1/5/1
f 4/5/1 2/5/1 3/5/1
f 5/4/1 4/4/1 3/4/1
f 6/4/1 4/4/1 5/4/1
f 7/7/1 6/7/1 5/7/1
f 8/7/1 6/7/1 7/7/1
f 9/4/1 8/4/1 7/4/1
f 10/4/1 8/4/1 9/4/1
f 11/5/1 10/5/1 9/5/1
f 12/5/1 10/5/1 11/5/1
f 13/3/1 12/3/1 11/3/1
f 14/3/1 12/3/1 13/3/1
f 17/5/1 16/5/1 15/5/1
f 18/5/1 16/5/1 17/5/1
f 19/5/1 16/5/1 18/5/1
f 22/5/1 21/5/1 20/5/1
f 23/5/1 21/5/1 22/5/1
f 24/5/2 25/5/2 26/5/2
f 26/5/2 25/5/2 27/5/2
f 28/5/2 29/5/2 30/5/2
f 30/5/2 29/5/2 31/5/2
f 31/5/2 29/5/2 32/5/2
f 33/5/2 34/5/2 35/5/2
f 35/5/2 34/5/2 36/5/2
f 35/4/2 36/4/2 37/4/2
f 37/4/2 36/4/2 38/4/2
f 37/7/2 38/7/2 39/7/2
f 39/7/2 38/7/2 40/7/2
f 39/4/2 40/4/2 41/4/2
f 41/4/2 40/4/2 42/4/2
f 41/5/2 42/5/2 43/5/2
f 43/5/2 42/5/2 44/5/2
f 43/3/2 44/3/2 45/3/2
f 45/3/2 44/3/2 46/3/2
f 54/5/3 52/5/3 51/5/3
f 55/3/3 53/3/3 52/3/3
f 55/5/3 52/5/3 54/5/3
f 56/3/3 53/3/3 55/3/3
f 57/3/3 53/3/3 56/3/3
f 58/3/3 53/3/3 57/3/3
f 59/1/3 55/1/3 54/1/3
f 60/5/3 56/5/3 55/5/3
f 60/1/3 55/1/3 59/1/3
f 61/1/3 57/1/3 56/1/3
f 61/5/3 56/5/3 60/5/3
f 62/1/3 57/1/3 61/1/3
f 63/1/3 59/1/3 54/1/3
f 63/5/3 60/5/3 59/5/3
f 63/5/3 62/5/3 61/5/3
f 63/5/3 61/5/3 60/5/3
f 64/5/3 62/5/3 63/5/3
f 65/5/3 62/5/3 64/5/3
f 66/1/3 57/1/3 62/1/3
f 66/5/3 62/5/3 65/5/3
f 67/5/3 54/5/3 51/5/3
f 67/1/3 63/1/3 54/1/3
f 67/1/3 64/1/3 63/1/3
f 68/5/3 65/5/3 64/5/3
f 68/1/3 64/1/3 67/1/3
f 69/1/3 66/1/3 65/1/3
f 69/5/3 65/5/3 68/5/3
f 70/1/3 57/1/3 66/1/3
f 70/1/3 66/1/3 69/1/3
f 70/5/3 58/5/3 57/5/3
f 71/5/3 58/5/3 70/5/3
f 72/5/3 58/5/3 71/5/3
f 73/5/3 69/5/3 68/5/3
f 73/5/3 68/5/3 67/5/3
f 73/5/3 70/5/3 69/5/3
f 73/5/3 71/5/3 70/5/3
f 74/9/3 72/9/3 71/9/3
f 74/5/3 71/5/3 73/5/3
f 75/5/3 48/5/3 47/5/3
f 76/4/3 49/4/3 48/4/3
f 76/5/3 48/5/3 75/5/3
f 77/7/3 50/7/3 49/7/3
f 77/4/3 49/4/3 76/4/3
f 78/4/3 51/4/3 50/4/3
f 78/7/3 50/7/3 77/7/3
f 79/5/3 67/5/3 51/5/3
f 79/4/3 51/4/3 78/4/3
f 79/5/3 73/5/3 67/5/3
f 80/9/3 74/9/3 73/9/3
f 80/5/3 73/5/3 79/5/3
f 81/2/3 76/2/3 75/2/3
f 81/2/3 77/2/3 76/2/3
f 81/2/3 80/2/3 79/2/3
f 81/2/3 79/2/3 78/2/3
f 81/2/3 78/2/3 77/2/3
f 82/2/3 80/2/3 81/2/3
f 83/2/3 80/2/3 82/2/3
f 84/2/3 80/2/3 83/2/3
f 85/2/3 80/2/3 84/2/3
f 86/9/3 74/9/3 80/9/3
f 86/2/3 80/2/3 85/2/3
f 87/5/3 86/5/3 85/5/3
f 87/9/3 74/9/3 86/9/3
f 88/9/3 72/9/3 74/9/3
f 88/9/3 74/9/3 87/9/3
f 89/5/3 88/5/3 87/5/3
f 89/9/3 72/9/3 88/9/3
f 90/9/3 72/9/3 89/9/3
f 91/5/3 87/5/3 85/5/3
f 91/5/3 89/5/3 87/5/3
f 91/5/3 90/5/3 89/5/3
f 92/5/3 90/5/3 91/5/3
f 93/5/3 82/5/3 81/5/3
f 94/4/3 83/4/3 82/4/3
f 94/5/3 82/5/3 93/5/3
f 95/7/3 84/7/3 83/7/3
f 95/4/3 83/4/3 94/4/3
f 96/4/3 85/4/3 84/4/3
f 96/7/3 84/7/3 95/7/3
f 97/5/3 91/5/3 85/5/3
f 97/4/3 85/4/3 96/4/3
f 98/3/3 92/3/3 91/3/3
f 98/5/3 91/5/3 97/5/3
f 99/3/3 92/3/3 98/3/3
f 105/3/4 106/3/4 107/3/4
f 107/3/4 106/3/4 108/3/4
f 105/3/4 107/3/4 109/3/4
f 107/5/4 108/5/4 110/5/4
f 109/3/4 107/3/4 110/3/4
f 110/5/4 108/5/4 111/5/4
f 105/3/4 109/3/4 112/3/4
f 112/3/4 109/3/4 113/3/4
f 105/3/4 112/3/4 114/3/4
f 114/3/4 115/3/4 116/3/4
f 116/3/4 117/3/4 119/3/4
f 117/5/4 118/5/4 119/5/4
f 119/5/4 118/5/4 120/5/4
f 100/5/4 101/5/4 121/5/4
f 101/4/4 102/4/4 122/4/4
f 121/5/4 101/5/4 122/5/4
f 102/7/4 103/7/4 123/7/4
f 122/4/4 102/4/4 123/4/4
f 103/4/4 104/4/4 124/4/4
f 123/7/4 103/7/4 124/7/4
f 104/5/4 105/5/4 125/5/4
f 124/4/4 104/4/4 125/4/4
f 114/3/4 116/3/4 126/3/4
f 125/5/4 105/5/4 126/5/4
f 105/3/4 114/3/4 126/3/4
f 119/3/4 120/3/4 126/3/4
f 116/3/4 119/3/4 126/3/4
f 126/3/4 120/3/4 127/3/4
f 128/5/4 129/5/4 131/5/4
f 131/5/4 129/5/4 132/5/4
f 130/5/4 131/5/4 133/5/4
f 131/6/4 132/6/4 133/6/4
f 132/5/4 129/5/4 134/5/4
f 133/6/4 132/6/4 134/6/4
f 130/5/4 133/5/4 135/5/4
f 133/5/4 134/5/4 135/5/4
f 135/5/4 134/5/4 136/5/4
f 136/5/4 134/5/4 137/5/4
f 134/5/4 129/5/4 138/5/4
f 137/5/4 134/5/4 138/5/4
f 143/5/5 140/5/5 139/5/5
f 143/2/5 141/2/5 140/2/5
f 144/5/5 142/5/5 141/5/5
f 144/2/5 141/2/5 143/2/5
f 145/5/5 143/5/5 139/5/5
f 145/5/5 144/5/5 143/5/5
f 146/5/5 142/5/5 144/5/5
f 146/5/5 144/5/5 145/5/5
f 149/5/5 148/5/5 147/5/5
f 150/5/5 148/5/5 149/5/5
f 155/5/5 152/5/5 151/5/5
f 156/5/5 152/5/5 155/5/5
f 157/5/5 154/5/5 153/5/5
f 158/5/5 154/5/5 157/5/5
f 159/3/6 160/3/6 165/3/6
f 160/5/6 161/5/6 166/5/6
f 165/3/6 160/3/6 166/3/6
f 166/5/6 161/5/6 167/5/6
f 161/9/6 162/9/6 168/9/6
f 167/5/6 161/5/6 168/5/6
f 162/5/6 163/5/6 169/5/6
f 168/9/6 162/9/6 169/9/6
f 169/5/6 163/5/6 170/5/6
f 163/3/6 164/3/6 171/3/6
f 170/5/6 163/5/6 171/5/6
f 171/3/6 164/3/6 172/3/6
f 159/3/6 165/3/6 173/3/6
f 166/5/6 167/5/6 173/5/6
f 165/5/6 166/5/6 173/5/6
f 173/5/6 167/5/6 174/5/6
f 169/8/6 170/8/6 175/8/6
f 174/5/6 167/5/6 175/5/6
f 167/8/6 168/8/6 175/8/6
f 168/8/6 169/8/6 175/8/6
f 171/5/6 172/5/6 176/5/6
f 175/8/6 170/8/6 176/8/6
f 170/5/6 171/5/6 176/5/6
f 176/5/6 172/5/6 177/5/6
f 172/3/6 164/3/6 178/3/6
f 177/5/6 172/5/6 178/5/6
f 173/3/6 174/3/6 179/3/6
f 159/3/6 173/3/6 179/3/6
f 176/5/6 177/5/6 180/5/6
f 179/3/6 174/3/6 180/3/6
f 174/5/6 175/5/6 180/5/6
f 175/5/6 176/5/6 180/5/6
f 180/5/6 177/5/6 181/5/6
f 181/5/6 177/5/6 182/5/6
f 177/3/6 178/3/6 183/3/6
f 182/5/6 177/5/6 183/5/6
f 178/3/6 164/3/6 184/3/6
f 183/3/6 178/3/6 184/3/6
f 181/5/6 182/5/6 185/5/6
f 185/5/6 182/5/6 186/5/6
