# 3ds Max Wavefront OBJ Exporter v0.99 - (c)2007 guruware
# File Created: 10.05.2022 12:08:31

mtllib torso.mtl

#
# object torso
#

v  -1.0000 -1.2957 0.3000
v  -1.0000 -1.3957 0.3000
v  -1.0000 -1.3957 0.4000
v  -1.0000 -1.3957 0.2000
v  -1.0000 -1.2957 0.2000
v  -1.0000 -1.3957 0.1000
v  -1.0000 -1.2957 0.1000
v  -1.0000 -1.3957 -0.1000
v  -1.0000 -1.2957 -0.1000
v  -1.0000 -1.3957 -0.2000
v  -1.0000 -1.2957 -0.2000
v  -1.0000 -1.3957 -0.3000
v  -1.0000 -1.2957 -0.3000
v  -1.0000 -1.3957 -0.4000
v  -1.0000 1.4043 0.4000
v  -1.0000 1.4043 -0.4000
v  1.0000 -1.3957 0.4000
v  1.0000 -1.3957 0.3000
v  1.0000 -1.2957 0.3000
v  1.0000 -1.3957 0.2000
v  1.0000 -1.3957 0.1000
v  1.0000 -1.2957 0.2000
v  1.0000 -1.3957 -0.1000
v  1.0000 -1.2957 0.1000
v  1.0000 -1.3957 -0.2000
v  1.0000 -1.2957 -0.1000
v  1.0000 -1.3957 -0.3000
v  1.0000 -1.2957 -0.2000
v  1.0000 -1.3957 -0.4000
v  1.0000 -1.2957 -0.3000
v  1.0000 1.4043 0.4000
v  1.0000 1.4043 -0.4000
v  -0.8000 -0.6957 0.4000
v  -0.8000 -0.5957 0.4000
v  -0.4000 -1.3957 0.4000
v  -0.4000 -1.2957 0.4000
v  -0.4000 -0.6957 0.4000
v  -0.4000 -0.5957 0.4000
v  -0.3000 -1.2957 0.4000
v  -0.3000 -1.1957 0.4000
v  -0.3000 1.3043 0.4000
v  -0.3000 1.4043 0.4000
v  -0.2000 1.1043 0.4000
v  -0.2000 1.3043 0.4000
v  -0.1000 -1.2957 0.4000
v  -0.1000 -1.1957 0.4000
v  -0.1000 0.9043 0.4000
v  -0.1000 1.1043 0.4000
v  0.1000 -1.2957 0.4000
v  0.1000 -1.1957 0.4000
v  0.1000 -0.5957 0.4000
v  0.1000 -0.4957 0.4000
v  0.1000 0.0043 0.4000
v  0.1000 0.1043 0.4000
v  0.1000 0.6043 0.4000
v  0.1000 0.7043 0.4000
v  0.1000 0.9043 0.4000
v  0.1000 1.1043 0.4000
v  0.2000 -0.5957 0.4000
v  0.2000 -0.4957 0.4000
v  0.2000 0.0043 0.4000
v  0.2000 0.1043 0.4000
v  0.2000 0.6043 0.4000
v  0.2000 0.7043 0.4000
v  0.2000 1.1043 0.4000
v  0.2000 1.3043 0.4000
v  0.3000 -1.2957 0.4000
v  0.3000 -1.1957 0.4000
v  0.3000 0.5043 0.4000
v  0.3000 0.6043 0.4000
v  0.3000 0.7043 0.4000
v  0.3000 0.8043 0.4000
v  0.3000 1.3043 0.4000
v  0.3000 1.4043 0.4000
v  0.4000 -1.3957 0.4000
v  0.4000 -1.2957 0.4000
v  0.4000 0.4043 0.4000
v  0.4000 0.5043 0.4000
v  0.4000 0.6043 0.4000
v  0.4000 0.7043 0.4000
v  0.6000 0.4043 0.4000
v  0.6000 0.5043 0.4000
v  0.6000 0.6043 0.4000
v  0.6000 0.7043 0.4000
v  0.7000 0.5043 0.4000
v  0.7000 0.6043 0.4000
v  0.7000 0.7043 0.4000
v  0.7000 0.8043 0.4000
v  -0.4000 -1.3957 0.3000
v  -0.3000 -1.3957 0.3000
v  0.3000 -1.3957 0.3000
v  0.4000 -1.3957 0.3000
v  -0.9000 -1.3957 0.2000
v  0.9000 -1.3957 0.2000
v  -0.9000 -1.3957 0.1000
v  0.9000 -1.3957 0.1000
v  -0.9000 -1.3957 -0.1000
v  0.9000 -1.3957 -0.1000
v  -0.9000 -1.3957 -0.2000
v  0.9000 -1.3957 -0.2000
v  -0.3000 -1.3957 -0.3000
v  0.3000 -1.3957 -0.3000
v  -0.3000 1.4043 0.3000
v  0.3000 1.4043 0.3000
# 104 vertices

vn -1.0000 0.0000 -0.0000
vn 1.0000 0.0000 -0.0000
vn 0.0000 0.0000 1.0000
vn 0.0000 0.0000 -1.0000
vn 0.0000 -1.0000 -0.0000
vn 0.0000 1.0000 -0.0000
# 6 vertex normals

vt 0.9785 0.5000 0.0000
vt 0.9746 0.5000 0.0000
vt 0.8535 0.5000 0.0000
vt 0.9082 0.5000 0.0000
vt 0.8770 0.5000 0.0000
vt 0.9395 0.5000 0.0000
vt 0.8809 0.5000 0.0000
# 7 texture coords

o torso
g torso
usemtl palette
s 1
f 1/1/1 2/1/1 3/1/1 
f 1/2/1 4/2/1 2/2/1 
f 5/3/1 6/3/1 4/3/1 
f 5/2/1 4/2/1 1/2/1 
f 7/2/1 8/2/1 6/2/1 
f 7/3/1 6/3/1 5/3/1 
f 9/3/1 10/3/1 8/3/1 
f 9/2/1 8/2/1 7/2/1 
f 11/2/1 12/2/1 10/2/1 
f 11/3/1 10/3/1 9/3/1 
f 13/1/1 14/1/1 12/1/1 
f 13/2/1 12/2/1 11/2/1 
f 15/1/1 11/1/1 9/1/1 
f 15/1/1 9/1/1 7/1/1 
f 15/1/1 13/1/1 11/1/1 
f 15/1/1 7/1/1 5/1/1 
f 15/1/1 5/1/1 1/1/1 
f 15/1/1 1/1/1 3/1/1 
f 16/1/1 14/1/1 13/1/1 
f 16/1/1 13/1/1 15/1/1 
f 17/1/2 18/1/2 19/1/2 
f 18/2/2 20/2/2 19/2/2 
f 20/3/2 21/3/2 22/3/2 
f 19/2/2 20/2/2 22/2/2 
f 21/2/2 23/2/2 24/2/2 
f 22/3/2 21/3/2 24/3/2 
f 23/3/2 25/3/2 26/3/2 
f 24/2/2 23/2/2 26/2/2 
f 25/2/2 27/2/2 28/2/2 
f 26/3/2 25/3/2 28/3/2 
f 27/1/2 29/1/2 30/1/2 
f 28/2/2 27/2/2 30/2/2 
f 26/1/2 28/1/2 31/1/2 
f 24/1/2 26/1/2 31/1/2 
f 28/1/2 30/1/2 31/1/2 
f 22/1/2 24/1/2 31/1/2 
f 19/1/2 22/1/2 31/1/2 
f 17/1/2 19/1/2 31/1/2 
f 30/1/2 29/1/2 32/1/2 
f 31/1/2 30/1/2 32/1/2 
f 33/1/3 15/1/3 3/1/3 
f 34/1/3 15/1/3 33/1/3 
f 35/1/3 33/1/3 3/1/3 
f 36/1/3 33/1/3 35/1/3 
f 37/4/3 34/4/3 33/4/3 
f 37/1/3 33/1/3 36/1/3 
f 38/1/3 15/1/3 34/1/3 
f 38/4/3 34/4/3 37/4/3 
f 39/1/3 37/1/3 36/1/3 
f 39/2/3 36/2/3 35/2/3 
f 39/1/3 38/1/3 37/1/3 
f 40/1/3 38/1/3 39/1/3 
f 41/1/3 15/1/3 38/1/3 
f 41/1/3 38/1/3 40/1/3 
f 42/1/3 15/1/3 41/1/3 
f 43/1/3 41/1/3 40/1/3 
f 44/5/3 42/5/3 41/5/3 
f 44/1/3 41/1/3 43/1/3 
f 45/2/3 40/2/3 39/2/3 
f 45/2/3 39/2/3 35/2/3 
f 46/1/3 43/1/3 40/1/3 
f 46/2/3 40/2/3 45/2/3 
f 47/1/3 43/1/3 46/1/3 
f 48/5/3 44/5/3 43/5/3 
f 48/1/3 43/1/3 47/1/3 
f 49/4/3 47/4/3 46/4/3 
f 49/2/3 45/2/3 35/2/3 
f 49/4/3 46/4/3 45/4/3 
f 50/4/3 47/4/3 49/4/3 
f 51/4/3 47/4/3 50/4/3 
f 52/4/3 47/4/3 51/4/3 
f 53/4/3 47/4/3 52/4/3 
f 54/4/3 47/4/3 53/4/3 
f 55/4/3 47/4/3 54/4/3 
f 56/4/3 47/4/3 55/4/3 
f 57/5/3 48/5/3 47/5/3 
f 57/4/3 47/4/3 56/4/3 
f 58/5/3 44/5/3 48/5/3 
f 58/5/3 48/5/3 57/5/3 
f 59/1/3 51/1/3 50/1/3 
f 59/6/3 52/6/3 51/6/3 
f 60/1/3 53/1/3 52/1/3 
f 60/6/3 52/6/3 59/6/3 
f 61/6/3 54/6/3 53/6/3 
f 61/1/3 53/1/3 60/1/3 
f 62/1/3 55/1/3 54/1/3 
f 62/6/3 54/6/3 61/6/3 
f 63/6/3 56/6/3 55/6/3 
f 63/1/3 55/1/3 62/1/3 
f 64/1/3 57/1/3 56/1/3 
f 64/6/3 56/6/3 63/6/3 
f 64/1/3 58/1/3 57/1/3 
f 65/5/3 44/5/3 58/5/3 
f 65/1/3 58/1/3 64/1/3 
f 66/5/3 42/5/3 44/5/3 
f 66/5/3 44/5/3 65/5/3 
f 67/2/3 49/2/3 35/2/3 
f 67/2/3 50/2/3 49/2/3 
f 68/1/3 65/1/3 64/1/3 
f 68/2/3 50/2/3 67/2/3 
f 68/1/3 63/1/3 62/1/3 
f 68/1/3 60/1/3 59/1/3 
f 68/1/3 59/1/3 50/1/3 
f 68/1/3 61/1/3 60/1/3 
f 68/1/3 64/1/3 63/1/3 
f 68/1/3 66/1/3 65/1/3 
f 68/1/3 62/1/3 61/1/3 
f 69/1/3 66/1/3 68/1/3 
f 70/1/3 66/1/3 69/1/3 
f 71/1/3 66/1/3 70/1/3 
f 72/1/3 66/1/3 71/1/3 
f 73/5/3 42/5/3 66/5/3 
f 73/1/3 66/1/3 72/1/3 
f 74/5/3 42/5/3 73/5/3 
f 75/2/3 67/2/3 35/2/3 
f 76/1/3 68/1/3 67/1/3 
f 76/2/3 67/2/3 75/2/3 
f 76/1/3 69/1/3 68/1/3 
f 77/1/3 69/1/3 76/1/3 
f 78/7/3 70/7/3 69/7/3 
f 78/1/3 69/1/3 77/1/3 
f 79/1/3 71/1/3 70/1/3 
f 79/7/3 70/7/3 78/7/3 
f 80/7/3 72/7/3 71/7/3 
f 80/1/3 71/1/3 79/1/3 
f 81/7/3 79/7/3 78/7/3 
f 81/1/3 77/1/3 76/1/3 
f 81/7/3 80/7/3 79/7/3 
f 81/1/3 76/1/3 75/1/3 
f 81/7/3 78/7/3 77/7/3 
f 82/7/3 80/7/3 81/7/3 
f 83/7/3 80/7/3 82/7/3 
f 84/7/3 72/7/3 80/7/3 
f 84/7/3 80/7/3 83/7/3 
f 85/7/3 83/7/3 82/7/3 
f 85/1/3 82/1/3 81/1/3 
f 86/1/3 84/1/3 83/1/3 
f 86/7/3 83/7/3 85/7/3 
f 87/7/3 72/7/3 84/7/3 
f 87/1/3 84/1/3 86/1/3 
f 88/1/3 74/1/3 73/1/3 
f 88/7/3 72/7/3 87/7/3 
f 88/1/3 73/1/3 72/1/3 
f 17/1/3 86/1/3 85/1/3 
f 17/1/3 87/1/3 86/1/3 
f 17/1/3 88/1/3 87/1/3 
f 17/1/3 81/1/3 75/1/3 
f 17/1/3 85/1/3 81/1/3 
f 31/1/3 74/1/3 88/1/3 
f 31/1/3 88/1/3 17/1/3 
f 14/1/4 16/1/4 29/1/4 
f 29/1/4 16/1/4 32/1/4 
f 2/1/5 35/1/5 3/1/5 
f 89/2/5 75/2/5 35/2/5 
f 89/1/5 35/1/5 2/1/5 
f 90/2/5 75/2/5 89/2/5 
f 91/2/5 75/2/5 90/2/5 
f 92/1/5 17/1/5 75/1/5 
f 92/2/5 75/2/5 91/2/5 
f 18/1/5 17/1/5 92/1/5 
f 4/2/5 89/2/5 2/2/5 
f 4/2/5 90/2/5 89/2/5 
f 93/2/5 90/2/5 4/2/5 
f 94/2/5 18/2/5 92/2/5 
f 94/2/5 92/2/5 91/2/5 
f 20/2/5 18/2/5 94/2/5 
f 6/3/5 93/3/5 4/3/5 
f 95/2/5 90/2/5 93/2/5 
f 95/3/5 93/3/5 6/3/5 
f 96/2/5 94/2/5 91/2/5 
f 96/3/5 20/3/5 94/3/5 
f 21/3/5 20/3/5 96/3/5 
f 8/2/5 95/2/5 6/2/5 
f 97/2/5 90/2/5 95/2/5 
f 97/2/5 95/2/5 8/2/5 
f 98/2/5 96/2/5 91/2/5 
f 98/2/5 21/2/5 96/2/5 
f 23/2/5 21/2/5 98/2/5 
f 10/3/5 97/3/5 8/3/5 
f 99/2/5 90/2/5 97/2/5 
f 99/3/5 97/3/5 10/3/5 
f 100/2/5 98/2/5 91/2/5 
f 100/3/5 23/3/5 98/3/5 
f 25/3/5 23/3/5 100/3/5 
f 12/2/5 99/2/5 10/2/5 
f 101/1/5 91/1/5 90/1/5 
f 101/2/5 99/2/5 12/2/5 
f 101/2/5 90/2/5 99/2/5 
f 102/2/5 25/2/5 100/2/5 
f 102/1/5 91/1/5 101/1/5 
f 102/2/5 100/2/5 91/2/5 
f 27/2/5 25/2/5 102/2/5 
f 14/1/5 101/1/5 12/1/5 
f 14/1/5 102/1/5 101/1/5 
f 14/1/5 27/1/5 102/1/5 
f 29/1/5 27/1/5 14/1/5 
f 15/1/6 42/1/6 103/1/6 
f 42/5/6 74/5/6 103/5/6 
f 74/1/6 31/1/6 104/1/6 
f 103/5/6 74/5/6 104/5/6 
f 15/1/6 103/1/6 16/1/6 
f 103/1/6 104/1/6 16/1/6 
f 104/1/6 31/1/6 32/1/6 
f 16/1/6 104/1/6 32/1/6 
# 204 faces

